<svg id="Layer_1" data-name="Layer 1" xmlns="http://www.w3.org/2000/svg" viewBox="0 0 331 310"><defs><style>.cls-1{fill:#981c1f;}.cls-2{fill:#aa212b;}</style></defs><title>Tekengebied 4 kopie</title><rect class="cls-1" x="-17" y="-16" width="359" height="334"/><path class="cls-2" d="M6.83-11.62A26.22,26.22,0,0,0,1.92-9.91c-.8.36-1.56.78-2.33,1.2s-1.51.92-2.21,1.46a24.44,24.44,0,0,0-4,3.57A24.25,24.25,0,0,0-9.79.69a22.13,22.13,0,0,0-2.94,10.46,21.6,21.6,0,0,0,2.47,10.66,16.17,16.17,0,0,0,8.32,7.67,11.15,11.15,0,0,0,3,.66,9.9,9.9,0,0,0,3.12-.32A10.88,10.88,0,0,0,7,28.6l.63-.39.6-.44a14.43,14.43,0,0,0,1.12-.92,19.57,19.57,0,0,0,3.53-4.3,32.76,32.76,0,0,0,2.4-4.77,46.66,46.66,0,0,0,2.56-9.51c.63.48,1.28.94,1.94,1.37a34.79,34.79,0,0,0,4.79,2.63,28.29,28.29,0,0,0,5.15,1.79.3.3,0,0,0,.3-.12.28.28,0,0,0-.07-.39c-1.48-1.06-3-2-4.46-3s-3-1.92-4.41-2.9l-4.34-3c-1.45-1-2.89-2-4.42-3a.29.29,0,0,0-.4.39,21.9,21.9,0,0,0,3.54,4.19c.47.44,1,.86,1.46,1.27a74.88,74.88,0,0,1-4.24,9,24.46,24.46,0,0,1-5.92,7.21,10.29,10.29,0,0,1-3.7,1.79,10,10,0,0,1-1.89.29,8.67,8.67,0,0,1-1.95-.17,7.75,7.75,0,0,1-1.93-.71,10.12,10.12,0,0,1-1.75-1.27,13.78,13.78,0,0,1-2.73-3.53,17.65,17.65,0,0,1-2-8.89A20.25,20.25,0,0,1-6.76,2.37,24.77,24.77,0,0,1-4.13-1.54,31,31,0,0,1-.79-5a76.23,76.23,0,0,1,7.91-6h0a.37.37,0,0,0,.15-.38A.38.38,0,0,0,6.83-11.62Z"/><path class="cls-2" d="M67.83-11.62a26.22,26.22,0,0,0-4.91,1.71c-.8.36-1.56.78-2.33,1.2s-1.51.92-2.21,1.46A25.77,25.77,0,0,0,51.21.69a22.13,22.13,0,0,0-2.94,10.46,21.6,21.6,0,0,0,2.47,10.66,16.17,16.17,0,0,0,8.32,7.67,11.15,11.15,0,0,0,3,.66,9.9,9.9,0,0,0,3.12-.32A10.88,10.88,0,0,0,68,28.6l.63-.39.6-.44a14.43,14.43,0,0,0,1.12-.92,19.57,19.57,0,0,0,3.53-4.3,32.76,32.76,0,0,0,2.4-4.77,46.66,46.66,0,0,0,2.56-9.51c.63.48,1.28.94,1.94,1.37a34.79,34.79,0,0,0,4.79,2.63,28.29,28.29,0,0,0,5.15,1.79.3.3,0,0,0,.3-.12.28.28,0,0,0-.07-.39c-1.48-1.06-3-2-4.46-3s-3-1.92-4.41-2.9l-4.34-3c-1.45-1-2.89-2-4.42-3a.29.29,0,0,0-.4.39,21.9,21.9,0,0,0,3.54,4.19c.47.44,1,.86,1.46,1.27a74.88,74.88,0,0,1-4.24,9,24.46,24.46,0,0,1-5.92,7.21,10.29,10.29,0,0,1-3.7,1.79,10,10,0,0,1-1.89.29,8.67,8.67,0,0,1-2-.17,7.75,7.75,0,0,1-1.93-.71,10.12,10.12,0,0,1-1.75-1.27,13.78,13.78,0,0,1-2.73-3.53,17.65,17.65,0,0,1-2-8.89,20.25,20.25,0,0,1,2.43-8.88,24.77,24.77,0,0,1,2.63-3.91A31,31,0,0,1,60.21-5a76.23,76.23,0,0,1,7.91-6h0a.37.37,0,0,0,.15-.38A.38.38,0,0,0,67.83-11.62Z"/><path class="cls-2" d="M127.83-11.62a26.22,26.22,0,0,0-4.91,1.71c-.8.36-1.56.78-2.33,1.2s-1.51.92-2.21,1.46A25.77,25.77,0,0,0,111.21.69a22.13,22.13,0,0,0-2.94,10.46,21.6,21.6,0,0,0,2.47,10.66,16.17,16.17,0,0,0,8.32,7.67,11.15,11.15,0,0,0,3,.66,9.9,9.9,0,0,0,3.12-.32A10.88,10.88,0,0,0,128,28.6l.63-.39.6-.44a14.43,14.43,0,0,0,1.12-.92,19.57,19.57,0,0,0,3.53-4.3,32.76,32.76,0,0,0,2.4-4.77,46.66,46.66,0,0,0,2.56-9.51c.63.48,1.28.94,1.94,1.37a34.79,34.79,0,0,0,4.79,2.63,28.29,28.29,0,0,0,5.15,1.79.3.3,0,0,0,.3-.12.28.28,0,0,0-.07-.39c-1.48-1.06-3-2-4.46-3s-3-1.92-4.41-2.9l-4.34-3c-1.45-1-2.89-2-4.42-3a.29.29,0,0,0-.4.39,21.9,21.9,0,0,0,3.54,4.19c.47.44,1,.86,1.46,1.27a74.88,74.88,0,0,1-4.24,9,24.46,24.46,0,0,1-5.92,7.21,10.29,10.29,0,0,1-3.7,1.79,10,10,0,0,1-1.89.29,8.67,8.67,0,0,1-2-.17,7.75,7.75,0,0,1-1.93-.71,10.12,10.12,0,0,1-1.75-1.27,13.78,13.78,0,0,1-2.73-3.53,17.65,17.65,0,0,1-2-8.89,20.25,20.25,0,0,1,2.43-8.88,24.77,24.77,0,0,1,2.63-3.91A31,31,0,0,1,120.21-5a76.23,76.23,0,0,1,7.91-6h0a.37.37,0,0,0,.15-.38A.38.38,0,0,0,127.83-11.62Z"/><path class="cls-2" d="M191.83-11.62a26.22,26.22,0,0,0-4.91,1.71c-.8.36-1.56.78-2.33,1.2s-1.51.92-2.21,1.46A25.77,25.77,0,0,0,175.21.69a22.13,22.13,0,0,0-2.94,10.46,21.6,21.6,0,0,0,2.47,10.66,16.17,16.17,0,0,0,8.32,7.67,11.15,11.15,0,0,0,3,.66,9.9,9.9,0,0,0,3.12-.32A10.88,10.88,0,0,0,192,28.6l.63-.39.6-.44a14.43,14.43,0,0,0,1.12-.92,19.57,19.57,0,0,0,3.53-4.3,32.76,32.76,0,0,0,2.4-4.77,46.66,46.66,0,0,0,2.56-9.51c.63.48,1.28.94,1.94,1.37a34.79,34.79,0,0,0,4.79,2.63,28.29,28.29,0,0,0,5.15,1.79.3.3,0,0,0,.3-.12.28.28,0,0,0-.07-.39c-1.48-1.06-3-2-4.46-3s-3-1.92-4.41-2.9l-4.34-3c-1.45-1-2.89-2-4.42-3a.29.29,0,0,0-.4.39,21.9,21.9,0,0,0,3.54,4.19c.47.44,1,.86,1.46,1.27a74.88,74.88,0,0,1-4.24,9,24.46,24.46,0,0,1-5.92,7.21,10.29,10.29,0,0,1-3.7,1.79,10,10,0,0,1-1.89.29,8.67,8.67,0,0,1-1.95-.17,7.75,7.75,0,0,1-1.93-.71,10.12,10.12,0,0,1-1.75-1.27,13.78,13.78,0,0,1-2.73-3.53,17.65,17.65,0,0,1-2-8.89,20.25,20.25,0,0,1,2.43-8.88,24.77,24.77,0,0,1,2.63-3.91A31,31,0,0,1,184.21-5a76.23,76.23,0,0,1,7.91-6h0a.37.37,0,0,0,.15-.38A.38.38,0,0,0,191.83-11.62Z"/><path class="cls-2" d="M252.83-11.62a26.22,26.22,0,0,0-4.91,1.71c-.8.36-1.56.78-2.33,1.2s-1.51.92-2.21,1.46A25.77,25.77,0,0,0,236.21.69a22.13,22.13,0,0,0-2.94,10.46,21.6,21.6,0,0,0,2.47,10.66,16.17,16.17,0,0,0,8.32,7.67,11.15,11.15,0,0,0,3,.66,9.9,9.9,0,0,0,3.12-.32A10.88,10.88,0,0,0,253,28.6l.63-.39.6-.44a14.43,14.43,0,0,0,1.12-.92,19.57,19.57,0,0,0,3.53-4.3,32.76,32.76,0,0,0,2.4-4.77,46.66,46.66,0,0,0,2.56-9.51c.63.48,1.28.94,1.94,1.37a34.79,34.79,0,0,0,4.79,2.63,28.29,28.29,0,0,0,5.15,1.79.3.3,0,0,0,.3-.12.28.28,0,0,0-.07-.39c-1.48-1.06-3-2-4.46-3s-3-1.92-4.41-2.9l-4.34-3c-1.45-1-2.89-2-4.42-3a.29.29,0,0,0-.4.39,21.9,21.9,0,0,0,3.54,4.19c.47.44,1,.86,1.46,1.27a74.88,74.88,0,0,1-4.24,9,24.46,24.46,0,0,1-5.92,7.21,10.29,10.29,0,0,1-3.7,1.79,10,10,0,0,1-1.89.29,8.67,8.67,0,0,1-1.95-.17,7.75,7.75,0,0,1-1.93-.71,10.12,10.12,0,0,1-1.75-1.27,13.78,13.78,0,0,1-2.73-3.53,17.65,17.65,0,0,1-2-8.89,20.25,20.25,0,0,1,2.43-8.88,24.77,24.77,0,0,1,2.63-3.91A31,31,0,0,1,245.21-5a76.23,76.23,0,0,1,7.91-6h0a.37.37,0,0,0,.15-.38A.38.38,0,0,0,252.83-11.62Z"/><path class="cls-2" d="M315.83-11.62a26.22,26.22,0,0,0-4.91,1.71c-.8.36-1.56.78-2.33,1.2s-1.51.92-2.21,1.46A25.77,25.77,0,0,0,299.21.69a22.13,22.13,0,0,0-2.94,10.46,21.6,21.6,0,0,0,2.47,10.66,16.17,16.17,0,0,0,8.32,7.67,11.15,11.15,0,0,0,3,.66,9.9,9.9,0,0,0,3.12-.32A10.88,10.88,0,0,0,316,28.6l.63-.39.6-.44a14.43,14.43,0,0,0,1.12-.92,19.57,19.57,0,0,0,3.53-4.3,32.76,32.76,0,0,0,2.4-4.77,46.66,46.66,0,0,0,2.56-9.51c.63.48,1.28.94,1.94,1.37a34.79,34.79,0,0,0,4.79,2.63,28.29,28.29,0,0,0,5.15,1.79.3.3,0,0,0,.3-.12.28.28,0,0,0-.07-.39c-1.48-1.06-3-2-4.46-3s-3-1.92-4.41-2.9l-4.34-3c-1.45-1-2.89-2-4.42-3a.29.29,0,0,0-.4.39,21.9,21.9,0,0,0,3.54,4.19c.47.44,1,.86,1.46,1.27a74.88,74.88,0,0,1-4.24,9,24.46,24.46,0,0,1-5.92,7.21,10.29,10.29,0,0,1-3.7,1.79,10,10,0,0,1-1.89.29,8.67,8.67,0,0,1-1.95-.17,7.75,7.75,0,0,1-1.93-.71,10.12,10.12,0,0,1-1.75-1.27,13.78,13.78,0,0,1-2.73-3.53,17.65,17.65,0,0,1-2-8.89,20.25,20.25,0,0,1,2.43-8.88,24.77,24.77,0,0,1,2.63-3.91A31,31,0,0,1,308.21-5a76.23,76.23,0,0,1,7.91-6h0a.37.37,0,0,0,.15-.38A.38.38,0,0,0,315.83-11.62Z"/><path class="cls-2" d="M6.83,64.38a26.22,26.22,0,0,0-4.91,1.71c-.8.36-1.56.78-2.33,1.2s-1.51.92-2.21,1.46a24.44,24.44,0,0,0-4,3.57,24.25,24.25,0,0,0-3.19,4.37,22.13,22.13,0,0,0-2.94,10.46,21.6,21.6,0,0,0,2.47,10.66,16.17,16.17,0,0,0,8.32,7.67,11.15,11.15,0,0,0,3,.66,9.9,9.9,0,0,0,3.12-.32A10.88,10.88,0,0,0,7,104.6l.63-.39.6-.44a14.43,14.43,0,0,0,1.12-.92,19.57,19.57,0,0,0,3.53-4.3,32.76,32.76,0,0,0,2.4-4.77,46.66,46.66,0,0,0,2.56-9.51c.63.48,1.28.94,1.94,1.37a34.79,34.79,0,0,0,4.79,2.63,28.29,28.29,0,0,0,5.15,1.79.3.3,0,0,0,.3-.12.28.28,0,0,0-.07-.39c-1.48-1.06-3-2-4.46-3s-3-1.92-4.41-2.9l-4.34-3c-1.45-1-2.89-2-4.42-3a.29.29,0,0,0-.4.39,21.9,21.9,0,0,0,3.54,4.19c.47.44,1,.86,1.46,1.27a74.88,74.88,0,0,1-4.24,9,24.46,24.46,0,0,1-5.92,7.21,10.29,10.29,0,0,1-3.7,1.79,10,10,0,0,1-1.89.29,8.67,8.67,0,0,1-1.95-.17,7.75,7.75,0,0,1-1.93-.71,10.12,10.12,0,0,1-1.75-1.27,13.78,13.78,0,0,1-2.73-3.53,17.65,17.65,0,0,1-2-8.89,20.25,20.25,0,0,1,2.43-8.88,24.77,24.77,0,0,1,2.63-3.91A31,31,0,0,1-.79,71a76.23,76.23,0,0,1,7.91-6h0a.36.36,0,0,0-.29-.65Z"/><path class="cls-2" d="M67.83,64.38a26.22,26.22,0,0,0-4.91,1.71c-.8.36-1.56.78-2.33,1.2s-1.51.92-2.21,1.46a25.77,25.77,0,0,0-7.17,7.94,22.13,22.13,0,0,0-2.94,10.46,21.6,21.6,0,0,0,2.47,10.66,16.17,16.17,0,0,0,8.32,7.67,11.15,11.15,0,0,0,3,.66,9.9,9.9,0,0,0,3.12-.32A10.88,10.88,0,0,0,68,104.6l.63-.39.6-.44a14.43,14.43,0,0,0,1.12-.92,19.57,19.57,0,0,0,3.53-4.3,32.76,32.76,0,0,0,2.4-4.77,46.66,46.66,0,0,0,2.56-9.51c.63.48,1.28.94,1.94,1.37a34.79,34.79,0,0,0,4.79,2.63,28.29,28.29,0,0,0,5.15,1.79.3.3,0,0,0,.3-.12.28.28,0,0,0-.07-.39c-1.48-1.06-3-2-4.46-3s-3-1.92-4.41-2.9l-4.34-3c-1.45-1-2.89-2-4.42-3a.29.29,0,0,0-.4.39,21.9,21.9,0,0,0,3.54,4.19c.47.44,1,.86,1.46,1.27a74.88,74.88,0,0,1-4.24,9,24.46,24.46,0,0,1-5.92,7.21,10.29,10.29,0,0,1-3.7,1.79,10,10,0,0,1-1.89.29,8.67,8.67,0,0,1-2-.17,7.75,7.75,0,0,1-1.93-.71,10.12,10.12,0,0,1-1.75-1.27,13.78,13.78,0,0,1-2.73-3.53,17.65,17.65,0,0,1-2-8.89,20.25,20.25,0,0,1,2.43-8.88,24.77,24.77,0,0,1,2.63-3.91A31,31,0,0,1,60.21,71a76.23,76.23,0,0,1,7.91-6h0a.36.36,0,0,0-.29-.65Z"/><path class="cls-2" d="M127.83,64.38a26.22,26.22,0,0,0-4.91,1.71c-.8.36-1.56.78-2.33,1.2s-1.51.92-2.21,1.46a25.77,25.77,0,0,0-7.17,7.94,22.13,22.13,0,0,0-2.94,10.46,21.6,21.6,0,0,0,2.47,10.66,16.17,16.17,0,0,0,8.32,7.67,11.15,11.15,0,0,0,3,.66,9.9,9.9,0,0,0,3.12-.32A10.88,10.88,0,0,0,128,104.6l.63-.39.6-.44a14.43,14.43,0,0,0,1.12-.92,19.57,19.57,0,0,0,3.53-4.3,32.76,32.76,0,0,0,2.4-4.77,46.66,46.66,0,0,0,2.56-9.51c.63.48,1.28.94,1.94,1.37a34.79,34.79,0,0,0,4.79,2.63,28.29,28.29,0,0,0,5.15,1.79.3.3,0,0,0,.3-.12.28.28,0,0,0-.07-.39c-1.48-1.06-3-2-4.46-3s-3-1.92-4.41-2.9l-4.34-3c-1.45-1-2.89-2-4.42-3a.29.29,0,0,0-.4.39,21.9,21.9,0,0,0,3.54,4.19c.47.44,1,.86,1.46,1.27a74.88,74.88,0,0,1-4.24,9,24.46,24.46,0,0,1-5.92,7.21,10.29,10.29,0,0,1-3.7,1.79,10,10,0,0,1-1.89.29,8.67,8.67,0,0,1-2-.17,7.75,7.75,0,0,1-1.93-.71,10.12,10.12,0,0,1-1.75-1.27,13.78,13.78,0,0,1-2.73-3.53,17.65,17.65,0,0,1-2-8.89,20.25,20.25,0,0,1,2.43-8.88,24.77,24.77,0,0,1,2.63-3.91A31,31,0,0,1,120.21,71a76.23,76.23,0,0,1,7.91-6h0a.36.36,0,0,0-.29-.65Z"/><path class="cls-2" d="M191.83,64.38a26.22,26.22,0,0,0-4.91,1.71c-.8.36-1.56.78-2.33,1.2s-1.51.92-2.21,1.46a25.77,25.77,0,0,0-7.17,7.94,22.13,22.13,0,0,0-2.94,10.46,21.6,21.6,0,0,0,2.47,10.66,16.17,16.17,0,0,0,8.32,7.67,11.15,11.15,0,0,0,3,.66,9.9,9.9,0,0,0,3.12-.32A10.88,10.88,0,0,0,192,104.6l.63-.39.6-.44a14.43,14.43,0,0,0,1.12-.92,19.57,19.57,0,0,0,3.53-4.3,32.76,32.76,0,0,0,2.4-4.77,46.66,46.66,0,0,0,2.56-9.51c.63.48,1.28.94,1.94,1.37a34.79,34.79,0,0,0,4.79,2.63,28.29,28.29,0,0,0,5.15,1.79.3.3,0,0,0,.3-.12.28.28,0,0,0-.07-.39c-1.48-1.06-3-2-4.46-3s-3-1.92-4.41-2.9l-4.34-3c-1.45-1-2.89-2-4.42-3a.29.29,0,0,0-.4.39,21.9,21.9,0,0,0,3.54,4.19c.47.44,1,.86,1.46,1.27a74.88,74.88,0,0,1-4.24,9,24.46,24.46,0,0,1-5.92,7.21,10.29,10.29,0,0,1-3.7,1.79,10,10,0,0,1-1.89.29,8.67,8.67,0,0,1-1.95-.17,7.75,7.75,0,0,1-1.93-.71,10.12,10.12,0,0,1-1.75-1.27,13.78,13.78,0,0,1-2.73-3.53,17.65,17.65,0,0,1-2-8.89,20.25,20.25,0,0,1,2.43-8.88,24.77,24.77,0,0,1,2.63-3.91A31,31,0,0,1,184.21,71a76.23,76.23,0,0,1,7.91-6h0a.36.36,0,0,0-.29-.65Z"/><path class="cls-2" d="M252.83,64.38a26.22,26.22,0,0,0-4.91,1.71c-.8.36-1.56.78-2.33,1.2s-1.51.92-2.21,1.46a25.77,25.77,0,0,0-7.17,7.94,22.13,22.13,0,0,0-2.94,10.46,21.6,21.6,0,0,0,2.47,10.66,16.17,16.17,0,0,0,8.32,7.67,11.15,11.15,0,0,0,3,.66,9.9,9.9,0,0,0,3.12-.32A10.88,10.88,0,0,0,253,104.6l.63-.39.6-.44a14.43,14.43,0,0,0,1.12-.92,19.57,19.57,0,0,0,3.53-4.3,32.76,32.76,0,0,0,2.4-4.77,46.66,46.66,0,0,0,2.56-9.51c.63.48,1.28.94,1.94,1.37a34.79,34.79,0,0,0,4.79,2.63,28.29,28.29,0,0,0,5.15,1.79.3.3,0,0,0,.3-.12.28.28,0,0,0-.07-.39c-1.48-1.06-3-2-4.46-3s-3-1.92-4.41-2.9l-4.34-3c-1.45-1-2.89-2-4.42-3a.29.29,0,0,0-.4.39,21.9,21.9,0,0,0,3.54,4.19c.47.44,1,.86,1.46,1.27a74.88,74.88,0,0,1-4.24,9,24.46,24.46,0,0,1-5.92,7.21,10.29,10.29,0,0,1-3.7,1.79,10,10,0,0,1-1.89.29,8.67,8.67,0,0,1-1.95-.17,7.75,7.75,0,0,1-1.93-.71,10.12,10.12,0,0,1-1.75-1.27,13.78,13.78,0,0,1-2.73-3.53,17.65,17.65,0,0,1-2-8.89,20.25,20.25,0,0,1,2.43-8.88,24.77,24.77,0,0,1,2.63-3.91A31,31,0,0,1,245.21,71a76.23,76.23,0,0,1,7.91-6h0a.36.36,0,0,0-.29-.65Z"/><path class="cls-2" d="M315.83,64.38a26.22,26.22,0,0,0-4.91,1.71c-.8.36-1.56.78-2.33,1.2s-1.51.92-2.21,1.46a25.77,25.77,0,0,0-7.17,7.94,22.13,22.13,0,0,0-2.94,10.46,21.6,21.6,0,0,0,2.47,10.66,16.17,16.17,0,0,0,8.32,7.67,11.15,11.15,0,0,0,3,.66,9.9,9.9,0,0,0,3.12-.32A10.88,10.88,0,0,0,316,104.6l.63-.39.6-.44a14.43,14.43,0,0,0,1.12-.92,19.57,19.57,0,0,0,3.53-4.3,32.76,32.76,0,0,0,2.4-4.77,46.66,46.66,0,0,0,2.56-9.51c.63.48,1.28.94,1.94,1.37a34.79,34.79,0,0,0,4.79,2.63,28.29,28.29,0,0,0,5.15,1.79.3.3,0,0,0,.3-.12.28.28,0,0,0-.07-.39c-1.48-1.06-3-2-4.46-3s-3-1.92-4.41-2.9l-4.34-3c-1.45-1-2.89-2-4.42-3a.29.29,0,0,0-.4.39,21.9,21.9,0,0,0,3.54,4.19c.47.44,1,.86,1.46,1.27a74.88,74.88,0,0,1-4.24,9,24.46,24.46,0,0,1-5.92,7.21,10.29,10.29,0,0,1-3.7,1.79,10,10,0,0,1-1.89.29,8.67,8.67,0,0,1-1.95-.17,7.75,7.75,0,0,1-1.93-.71,10.12,10.12,0,0,1-1.75-1.27,13.78,13.78,0,0,1-2.73-3.53,17.65,17.65,0,0,1-2-8.89,20.25,20.25,0,0,1,2.43-8.88,24.77,24.77,0,0,1,2.63-3.91A31,31,0,0,1,308.21,71a76.23,76.23,0,0,1,7.91-6h0a.36.36,0,0,0-.29-.65Z"/><path class="cls-2" d="M37.83,25.38a26.22,26.22,0,0,0-4.91,1.71c-.8.36-1.56.78-2.33,1.2s-1.51.92-2.21,1.46a25.77,25.77,0,0,0-7.17,7.94,22.13,22.13,0,0,0-2.94,10.46,21.6,21.6,0,0,0,2.47,10.66,16.17,16.17,0,0,0,8.32,7.67,11.15,11.15,0,0,0,3,.66,9.9,9.9,0,0,0,3.12-.32A10.88,10.88,0,0,0,38,65.6l.63-.39.6-.44a14.43,14.43,0,0,0,1.12-.92,19.57,19.57,0,0,0,3.53-4.3,32.76,32.76,0,0,0,2.4-4.77,46.66,46.66,0,0,0,2.56-9.51c.63.48,1.28.94,1.94,1.37a34.79,34.79,0,0,0,4.79,2.63,28.29,28.29,0,0,0,5.15,1.79.3.3,0,0,0,.3-.12.28.28,0,0,0-.07-.39c-1.48-1.06-3-2-4.46-3s-3-1.92-4.41-2.9l-4.34-3c-1.45-1-2.89-2-4.42-3a.29.29,0,0,0-.4.39,21.9,21.9,0,0,0,3.54,4.19c.47.44,1,.86,1.46,1.27a74.88,74.88,0,0,1-4.24,9,24.46,24.46,0,0,1-5.92,7.21,10.29,10.29,0,0,1-3.7,1.79,10,10,0,0,1-1.89.29,8.67,8.67,0,0,1-2-.17,7.75,7.75,0,0,1-1.93-.71,10.12,10.12,0,0,1-1.75-1.27,13.78,13.78,0,0,1-2.73-3.53,17.65,17.65,0,0,1-2-8.89,20.25,20.25,0,0,1,2.43-8.88,24.77,24.77,0,0,1,2.63-3.91A31,31,0,0,1,30.21,32a76.23,76.23,0,0,1,7.91-6h0a.36.36,0,0,0-.29-.65Z"/><path class="cls-2" d="M98.83,25.38a26.22,26.22,0,0,0-4.91,1.71c-.8.36-1.56.78-2.33,1.2s-1.51.92-2.21,1.46a25.77,25.77,0,0,0-7.17,7.94,22.13,22.13,0,0,0-2.94,10.46,21.6,21.6,0,0,0,2.47,10.66,16.17,16.17,0,0,0,8.32,7.67,11.15,11.15,0,0,0,3,.66,9.9,9.9,0,0,0,3.12-.32A10.88,10.88,0,0,0,99,65.6l.63-.39.6-.44a14.43,14.43,0,0,0,1.12-.92,19.57,19.57,0,0,0,3.53-4.3,32.76,32.76,0,0,0,2.4-4.77,46.66,46.66,0,0,0,2.56-9.51c.63.48,1.28.94,1.94,1.37a34.79,34.79,0,0,0,4.79,2.63,28.29,28.29,0,0,0,5.15,1.79.3.3,0,0,0,.3-.12.28.28,0,0,0-.07-.39c-1.48-1.06-3-2-4.46-3s-3-1.92-4.41-2.9l-4.34-3c-1.45-1-2.89-2-4.42-3a.29.29,0,0,0-.4.39,21.9,21.9,0,0,0,3.54,4.19c.47.44,1,.86,1.46,1.27a74.88,74.88,0,0,1-4.24,9,24.46,24.46,0,0,1-5.92,7.21,10.29,10.29,0,0,1-3.7,1.79,10,10,0,0,1-1.89.29,8.67,8.67,0,0,1-2-.17,7.75,7.75,0,0,1-1.93-.71,10.12,10.12,0,0,1-1.75-1.27,13.78,13.78,0,0,1-2.73-3.53,17.65,17.65,0,0,1-2-8.89,20.25,20.25,0,0,1,2.43-8.88,24.77,24.77,0,0,1,2.63-3.91A31,31,0,0,1,91.21,32a76.23,76.23,0,0,1,7.91-6h0a.36.36,0,0,0-.29-.65Z"/><path class="cls-2" d="M158.83,25.38a26.22,26.22,0,0,0-4.91,1.71c-.8.36-1.56.78-2.33,1.2s-1.51.92-2.21,1.46a25.77,25.77,0,0,0-7.17,7.94,22.13,22.13,0,0,0-2.94,10.46,21.6,21.6,0,0,0,2.47,10.66,16.17,16.17,0,0,0,8.32,7.67,11.15,11.15,0,0,0,3,.66,9.9,9.9,0,0,0,3.12-.32A10.88,10.88,0,0,0,159,65.6l.63-.39.6-.44a14.43,14.43,0,0,0,1.12-.92,19.57,19.57,0,0,0,3.53-4.3,32.76,32.76,0,0,0,2.4-4.77,46.66,46.66,0,0,0,2.56-9.51c.63.48,1.28.94,1.94,1.37a34.79,34.79,0,0,0,4.79,2.63,28.29,28.29,0,0,0,5.15,1.79.3.3,0,0,0,.3-.12.28.28,0,0,0-.07-.39c-1.48-1.06-3-2-4.46-3s-3-1.92-4.41-2.9l-4.34-3c-1.45-1-2.89-2-4.42-3a.29.29,0,0,0-.4.39,21.9,21.9,0,0,0,3.54,4.19c.47.44,1,.86,1.46,1.27a74.88,74.88,0,0,1-4.24,9,24.46,24.46,0,0,1-5.92,7.21,10.29,10.29,0,0,1-3.7,1.79,10,10,0,0,1-1.89.29,8.67,8.67,0,0,1-1.95-.17,7.75,7.75,0,0,1-1.93-.71,10.12,10.12,0,0,1-1.75-1.27,13.78,13.78,0,0,1-2.73-3.53,17.65,17.65,0,0,1-2-8.89,20.25,20.25,0,0,1,2.43-8.88,24.77,24.77,0,0,1,2.63-3.91A31,31,0,0,1,151.21,32a76.23,76.23,0,0,1,7.91-6h0a.36.36,0,0,0-.29-.65Z"/><path class="cls-2" d="M222.83,25.38a26.22,26.22,0,0,0-4.91,1.71c-.8.36-1.56.78-2.33,1.2s-1.51.92-2.21,1.46a25.77,25.77,0,0,0-7.17,7.94,22.13,22.13,0,0,0-2.94,10.46,21.6,21.6,0,0,0,2.47,10.66,16.17,16.17,0,0,0,8.32,7.67,11.15,11.15,0,0,0,3,.66,9.9,9.9,0,0,0,3.12-.32A10.88,10.88,0,0,0,223,65.6l.63-.39.6-.44a14.43,14.43,0,0,0,1.12-.92,19.57,19.57,0,0,0,3.53-4.3,32.76,32.76,0,0,0,2.4-4.77,46.66,46.66,0,0,0,2.56-9.51c.63.48,1.28.94,1.94,1.37a34.79,34.79,0,0,0,4.79,2.63,28.29,28.29,0,0,0,5.15,1.79.3.3,0,0,0,.3-.12.28.28,0,0,0-.07-.39c-1.48-1.06-3-2-4.46-3s-3-1.92-4.41-2.9l-4.34-3c-1.45-1-2.89-2-4.42-3a.29.29,0,0,0-.4.39,21.9,21.9,0,0,0,3.54,4.19c.47.44,1,.86,1.46,1.27a74.88,74.88,0,0,1-4.24,9,24.46,24.46,0,0,1-5.92,7.21,10.29,10.29,0,0,1-3.7,1.79,10,10,0,0,1-1.89.29,8.67,8.67,0,0,1-1.95-.17,7.75,7.75,0,0,1-1.93-.71,10.12,10.12,0,0,1-1.75-1.27,13.78,13.78,0,0,1-2.73-3.53,17.65,17.65,0,0,1-2-8.89,20.25,20.25,0,0,1,2.43-8.88,24.77,24.77,0,0,1,2.63-3.91A31,31,0,0,1,215.21,32a76.23,76.23,0,0,1,7.91-6h0a.36.36,0,0,0-.29-.65Z"/><path class="cls-2" d="M283.83,25.38a26.22,26.22,0,0,0-4.91,1.71c-.8.36-1.56.78-2.33,1.2s-1.51.92-2.21,1.46a25.77,25.77,0,0,0-7.17,7.94,22.13,22.13,0,0,0-2.94,10.46,21.6,21.6,0,0,0,2.47,10.66,16.17,16.17,0,0,0,8.32,7.67,11.15,11.15,0,0,0,3,.66,9.9,9.9,0,0,0,3.12-.32A10.88,10.88,0,0,0,284,65.6l.63-.39.6-.44a14.43,14.43,0,0,0,1.12-.92,19.57,19.57,0,0,0,3.53-4.3,32.76,32.76,0,0,0,2.4-4.77,46.66,46.66,0,0,0,2.56-9.51c.63.48,1.28.94,1.94,1.37a34.79,34.79,0,0,0,4.79,2.63,28.29,28.29,0,0,0,5.15,1.79.3.3,0,0,0,.3-.12.28.28,0,0,0-.07-.39c-1.48-1.06-3-2-4.46-3s-3-1.92-4.41-2.9l-4.34-3c-1.45-1-2.89-2-4.42-3a.29.29,0,0,0-.4.39,21.9,21.9,0,0,0,3.54,4.19c.47.44,1,.86,1.46,1.27a74.88,74.88,0,0,1-4.24,9,24.46,24.46,0,0,1-5.92,7.21,10.29,10.29,0,0,1-3.7,1.79,10,10,0,0,1-1.89.29,8.67,8.67,0,0,1-1.95-.17,7.75,7.75,0,0,1-1.93-.71,10.12,10.12,0,0,1-1.75-1.27,13.78,13.78,0,0,1-2.73-3.53,17.65,17.65,0,0,1-2-8.89,20.25,20.25,0,0,1,2.43-8.88,24.77,24.77,0,0,1,2.63-3.91A31,31,0,0,1,276.21,32a76.23,76.23,0,0,1,7.91-6h0a.36.36,0,0,0-.29-.65Z"/><path class="cls-2" d="M346.83,25.38a26.22,26.22,0,0,0-4.91,1.71c-.8.36-1.56.78-2.33,1.2s-1.51.92-2.21,1.46a25.77,25.77,0,0,0-7.17,7.94,22.13,22.13,0,0,0-2.94,10.46,21.6,21.6,0,0,0,2.47,10.66,16.17,16.17,0,0,0,8.32,7.67,11.15,11.15,0,0,0,3,.66,9.9,9.9,0,0,0,3.12-.32A10.88,10.88,0,0,0,347,65.6l.63-.39.6-.44a14.43,14.43,0,0,0,1.12-.92,19.57,19.57,0,0,0,3.53-4.3,32.76,32.76,0,0,0,2.4-4.77,46.66,46.66,0,0,0,2.56-9.51c.63.48,1.28.94,1.94,1.37a34.79,34.79,0,0,0,4.79,2.63,28.29,28.29,0,0,0,5.15,1.79.3.3,0,0,0,.3-.12.28.28,0,0,0-.07-.39c-1.48-1.06-3-2-4.46-3s-3-1.92-4.41-2.9l-4.34-3c-1.45-1-2.89-2-4.42-3a.29.29,0,0,0-.4.39,21.9,21.9,0,0,0,3.54,4.19c.47.44,1,.86,1.46,1.27a74.88,74.88,0,0,1-4.24,9,24.46,24.46,0,0,1-5.92,7.21,10.29,10.29,0,0,1-3.7,1.79,10,10,0,0,1-1.89.29,8.67,8.67,0,0,1-1.95-.17,7.75,7.75,0,0,1-1.93-.71,10.12,10.12,0,0,1-1.75-1.27,13.78,13.78,0,0,1-2.73-3.53,17.65,17.65,0,0,1-2-8.89,20.25,20.25,0,0,1,2.43-8.88,24.77,24.77,0,0,1,2.63-3.91A31,31,0,0,1,339.21,32a76.23,76.23,0,0,1,7.91-6h0a.36.36,0,0,0-.29-.65Z"/><path class="cls-2" d="M-21.17,25.38a26.22,26.22,0,0,0-4.91,1.71c-.8.36-1.56.78-2.33,1.2s-1.51.92-2.21,1.46a24.44,24.44,0,0,0-4,3.57,24.25,24.25,0,0,0-3.19,4.37,22.13,22.13,0,0,0-2.94,10.46,21.6,21.6,0,0,0,2.47,10.66,16.17,16.17,0,0,0,8.32,7.67,11.15,11.15,0,0,0,3,.66,9.9,9.9,0,0,0,3.12-.32A10.88,10.88,0,0,0-21,65.6l.63-.39.6-.44a14.43,14.43,0,0,0,1.12-.92,19.57,19.57,0,0,0,3.53-4.3,32.76,32.76,0,0,0,2.4-4.77,46.66,46.66,0,0,0,2.56-9.51c.63.48,1.28.94,1.94,1.37A34.79,34.79,0,0,0-3.4,49.27a28.29,28.29,0,0,0,5.15,1.79.3.3,0,0,0,.3-.12A.28.28,0,0,0,2,50.55c-1.48-1.06-3-2-4.46-3s-3-1.92-4.41-2.9l-4.34-3c-1.45-1-2.89-2-4.42-3a.29.29,0,0,0-.31,0,.29.29,0,0,0-.09.39,21.9,21.9,0,0,0,3.54,4.19c.47.44,1,.86,1.46,1.27a74.88,74.88,0,0,1-4.24,9,24.46,24.46,0,0,1-5.92,7.21,10.29,10.29,0,0,1-3.7,1.79,10,10,0,0,1-1.89.29,8.67,8.67,0,0,1-1.95-.17,7.75,7.75,0,0,1-1.93-.71,10.12,10.12,0,0,1-1.75-1.27,13.78,13.78,0,0,1-2.73-3.53,17.65,17.65,0,0,1-2-8.89,20.25,20.25,0,0,1,2.43-8.88,24.77,24.77,0,0,1,2.63-3.91A31,31,0,0,1-28.79,32a76.23,76.23,0,0,1,7.91-6h0a.37.37,0,0,0,.15-.38A.38.38,0,0,0-21.17,25.38Z"/><path class="cls-2" d="M37.83,99.38a26.22,26.22,0,0,0-4.91,1.71c-.8.36-1.56.78-2.33,1.2s-1.51.92-2.21,1.46a25.77,25.77,0,0,0-7.17,7.94,22.13,22.13,0,0,0-2.94,10.46,21.6,21.6,0,0,0,2.47,10.66,16.17,16.17,0,0,0,8.32,7.67,11.15,11.15,0,0,0,3,.66,9.9,9.9,0,0,0,3.12-.32A10.88,10.88,0,0,0,38,139.6l.63-.39.6-.44a14.43,14.43,0,0,0,1.12-.92,19.57,19.57,0,0,0,3.53-4.3,32.76,32.76,0,0,0,2.4-4.77,46.66,46.66,0,0,0,2.56-9.51c.63.48,1.28.94,1.94,1.37a34.79,34.79,0,0,0,4.79,2.63,28.29,28.29,0,0,0,5.15,1.79.3.3,0,0,0,.3-.12.28.28,0,0,0-.07-.39c-1.48-1.06-3-2-4.46-3s-3-1.92-4.41-2.9l-4.34-3c-1.45-1-2.89-2-4.42-3a.29.29,0,0,0-.4.39,21.9,21.9,0,0,0,3.54,4.19c.47.44,1,.86,1.46,1.27a74.88,74.88,0,0,1-4.24,9,24.46,24.46,0,0,1-5.92,7.21,10.29,10.29,0,0,1-3.7,1.79,10,10,0,0,1-1.89.29,8.67,8.67,0,0,1-2-.17,7.75,7.75,0,0,1-1.93-.71,10.12,10.12,0,0,1-1.75-1.27,13.78,13.78,0,0,1-2.73-3.53,17.65,17.65,0,0,1-2-8.89,20.25,20.25,0,0,1,2.43-8.88,24.77,24.77,0,0,1,2.63-3.91A31,31,0,0,1,30.21,106a76.23,76.23,0,0,1,7.91-6h0a.36.36,0,0,0-.29-.65Z"/><path class="cls-2" d="M98.83,99.38a26.22,26.22,0,0,0-4.91,1.71c-.8.36-1.56.78-2.33,1.2s-1.51.92-2.21,1.46a25.77,25.77,0,0,0-7.17,7.94,22.13,22.13,0,0,0-2.94,10.46,21.6,21.6,0,0,0,2.47,10.66,16.17,16.17,0,0,0,8.32,7.67,11.15,11.15,0,0,0,3,.66,9.9,9.9,0,0,0,3.12-.32A10.88,10.88,0,0,0,99,139.6l.63-.39.6-.44a14.43,14.43,0,0,0,1.12-.92,19.57,19.57,0,0,0,3.53-4.3,32.76,32.76,0,0,0,2.4-4.77,46.66,46.66,0,0,0,2.56-9.51c.63.48,1.28.94,1.94,1.37a34.79,34.79,0,0,0,4.79,2.63,28.29,28.29,0,0,0,5.15,1.79.3.3,0,0,0,.3-.12.28.28,0,0,0-.07-.39c-1.48-1.06-3-2-4.46-3s-3-1.92-4.41-2.9l-4.34-3c-1.45-1-2.89-2-4.42-3a.29.29,0,0,0-.4.39,21.9,21.9,0,0,0,3.54,4.19c.47.44,1,.86,1.46,1.27a74.88,74.88,0,0,1-4.24,9,24.46,24.46,0,0,1-5.92,7.21,10.29,10.29,0,0,1-3.7,1.79,10,10,0,0,1-1.89.29,8.67,8.67,0,0,1-2-.17,7.75,7.75,0,0,1-1.93-.71,10.12,10.12,0,0,1-1.75-1.27,13.78,13.78,0,0,1-2.73-3.53,17.65,17.65,0,0,1-2-8.89,20.25,20.25,0,0,1,2.43-8.88,24.77,24.77,0,0,1,2.63-3.91A31,31,0,0,1,91.21,106a76.23,76.23,0,0,1,7.91-6h0a.36.36,0,0,0-.29-.65Z"/><path class="cls-2" d="M158.83,99.38a26.22,26.22,0,0,0-4.91,1.71c-.8.36-1.56.78-2.33,1.2s-1.51.92-2.21,1.46a25.77,25.77,0,0,0-7.17,7.94,22.13,22.13,0,0,0-2.94,10.46,21.6,21.6,0,0,0,2.47,10.66,16.17,16.17,0,0,0,8.32,7.67,11.15,11.15,0,0,0,3,.66,9.9,9.9,0,0,0,3.12-.32A10.88,10.88,0,0,0,159,139.6l.63-.39.6-.44a14.43,14.43,0,0,0,1.12-.92,19.57,19.57,0,0,0,3.53-4.3,32.76,32.76,0,0,0,2.4-4.77,46.66,46.66,0,0,0,2.56-9.51c.63.48,1.28.94,1.94,1.37a34.79,34.79,0,0,0,4.79,2.63,28.29,28.29,0,0,0,5.15,1.79.3.3,0,0,0,.3-.12.28.28,0,0,0-.07-.39c-1.48-1.06-3-2-4.46-3s-3-1.92-4.41-2.9l-4.34-3c-1.45-1-2.89-2-4.42-3a.29.29,0,0,0-.4.39,21.9,21.9,0,0,0,3.54,4.19c.47.44,1,.86,1.46,1.27a74.88,74.88,0,0,1-4.24,9,24.46,24.46,0,0,1-5.92,7.21,10.29,10.29,0,0,1-3.7,1.79,10,10,0,0,1-1.89.29,8.67,8.67,0,0,1-1.95-.17,7.75,7.75,0,0,1-1.93-.71,10.12,10.12,0,0,1-1.75-1.27,13.78,13.78,0,0,1-2.73-3.53,17.65,17.65,0,0,1-2-8.89,20.25,20.25,0,0,1,2.43-8.88,24.77,24.77,0,0,1,2.63-3.91,31,31,0,0,1,3.34-3.44,76.23,76.23,0,0,1,7.91-6h0a.36.36,0,0,0-.29-.65Z"/><path class="cls-2" d="M222.83,99.38a26.22,26.22,0,0,0-4.91,1.71c-.8.36-1.56.78-2.33,1.2s-1.51.92-2.21,1.46a25.77,25.77,0,0,0-7.17,7.94,22.13,22.13,0,0,0-2.94,10.46,21.6,21.6,0,0,0,2.47,10.66,16.17,16.17,0,0,0,8.32,7.67,11.15,11.15,0,0,0,3,.66,9.9,9.9,0,0,0,3.12-.32A10.88,10.88,0,0,0,223,139.6l.63-.39.6-.44a14.43,14.43,0,0,0,1.12-.92,19.57,19.57,0,0,0,3.53-4.3,32.76,32.76,0,0,0,2.4-4.77,46.66,46.66,0,0,0,2.56-9.51c.63.48,1.28.94,1.94,1.37a34.79,34.79,0,0,0,4.79,2.63,28.29,28.29,0,0,0,5.15,1.79.3.3,0,0,0,.3-.12.28.28,0,0,0-.07-.39c-1.48-1.06-3-2-4.46-3s-3-1.92-4.41-2.9l-4.34-3c-1.45-1-2.89-2-4.42-3a.29.29,0,0,0-.4.39,21.9,21.9,0,0,0,3.54,4.19c.47.44,1,.86,1.46,1.27a74.88,74.88,0,0,1-4.24,9,24.46,24.46,0,0,1-5.92,7.21,10.29,10.29,0,0,1-3.7,1.79,10,10,0,0,1-1.89.29,8.67,8.67,0,0,1-1.95-.17,7.75,7.75,0,0,1-1.93-.71,10.12,10.12,0,0,1-1.75-1.27,13.78,13.78,0,0,1-2.73-3.53,17.65,17.65,0,0,1-2-8.89,20.25,20.25,0,0,1,2.43-8.88,24.77,24.77,0,0,1,2.63-3.91,31,31,0,0,1,3.34-3.44,76.23,76.23,0,0,1,7.91-6h0a.36.36,0,0,0-.29-.65Z"/><path class="cls-2" d="M283.83,99.38a26.22,26.22,0,0,0-4.91,1.71c-.8.36-1.56.78-2.33,1.2s-1.51.92-2.21,1.46a25.77,25.77,0,0,0-7.17,7.94,22.13,22.13,0,0,0-2.94,10.46,21.6,21.6,0,0,0,2.47,10.66,16.17,16.17,0,0,0,8.32,7.67,11.15,11.15,0,0,0,3,.66,9.9,9.9,0,0,0,3.12-.32A10.88,10.88,0,0,0,284,139.6l.63-.39.6-.44a14.43,14.43,0,0,0,1.12-.92,19.57,19.57,0,0,0,3.53-4.3,32.76,32.76,0,0,0,2.4-4.77,46.66,46.66,0,0,0,2.56-9.51c.63.48,1.28.94,1.94,1.37a34.79,34.79,0,0,0,4.79,2.63,28.29,28.29,0,0,0,5.15,1.79.3.3,0,0,0,.3-.12.28.28,0,0,0-.07-.39c-1.48-1.06-3-2-4.46-3s-3-1.92-4.41-2.9l-4.34-3c-1.45-1-2.89-2-4.42-3a.29.29,0,0,0-.4.39,21.9,21.9,0,0,0,3.54,4.19c.47.44,1,.86,1.46,1.27a74.88,74.88,0,0,1-4.24,9,24.46,24.46,0,0,1-5.92,7.21,10.29,10.29,0,0,1-3.7,1.79,10,10,0,0,1-1.89.29,8.67,8.67,0,0,1-1.95-.17,7.75,7.75,0,0,1-1.93-.71,10.12,10.12,0,0,1-1.75-1.27,13.78,13.78,0,0,1-2.73-3.53,17.65,17.65,0,0,1-2-8.89,20.25,20.25,0,0,1,2.43-8.88,24.77,24.77,0,0,1,2.63-3.91,31,31,0,0,1,3.34-3.44,76.23,76.23,0,0,1,7.91-6h0a.36.36,0,0,0-.29-.65Z"/><path class="cls-2" d="M346.83,99.38a26.22,26.22,0,0,0-4.91,1.71c-.8.36-1.56.78-2.33,1.2s-1.51.92-2.21,1.46a25.77,25.77,0,0,0-7.17,7.94,22.13,22.13,0,0,0-2.94,10.46,21.6,21.6,0,0,0,2.47,10.66,16.17,16.17,0,0,0,8.32,7.67,11.15,11.15,0,0,0,3,.66,9.9,9.9,0,0,0,3.12-.32A10.88,10.88,0,0,0,347,139.6l.63-.39.6-.44a14.43,14.43,0,0,0,1.12-.92,19.57,19.57,0,0,0,3.53-4.3,32.76,32.76,0,0,0,2.4-4.77,46.66,46.66,0,0,0,2.56-9.51c.63.48,1.28.94,1.94,1.37a34.79,34.79,0,0,0,4.79,2.63,28.29,28.29,0,0,0,5.15,1.79.3.3,0,0,0,.3-.12.28.28,0,0,0-.07-.39c-1.48-1.06-3-2-4.46-3s-3-1.92-4.41-2.9l-4.34-3c-1.45-1-2.89-2-4.42-3a.29.29,0,0,0-.4.39,21.9,21.9,0,0,0,3.54,4.19c.47.44,1,.86,1.46,1.27a74.88,74.88,0,0,1-4.24,9,24.46,24.46,0,0,1-5.92,7.21,10.29,10.29,0,0,1-3.7,1.79,10,10,0,0,1-1.89.29,8.67,8.67,0,0,1-1.95-.17,7.75,7.75,0,0,1-1.93-.71,10.12,10.12,0,0,1-1.75-1.27,13.78,13.78,0,0,1-2.73-3.53,17.65,17.65,0,0,1-2-8.89,20.25,20.25,0,0,1,2.43-8.88,24.77,24.77,0,0,1,2.63-3.91,31,31,0,0,1,3.34-3.44,76.23,76.23,0,0,1,7.91-6h0a.36.36,0,0,0-.29-.65Z"/><path class="cls-2" d="M-21.17,99.38a26.22,26.22,0,0,0-4.91,1.71c-.8.36-1.56.78-2.33,1.2s-1.51.92-2.21,1.46a24.44,24.44,0,0,0-4,3.57,24.25,24.25,0,0,0-3.19,4.37,22.13,22.13,0,0,0-2.94,10.46,21.6,21.6,0,0,0,2.47,10.66,16.17,16.17,0,0,0,8.32,7.67,11.15,11.15,0,0,0,3,.66,9.9,9.9,0,0,0,3.12-.32A10.88,10.88,0,0,0-21,139.6l.63-.39.6-.44a14.43,14.43,0,0,0,1.12-.92,19.57,19.57,0,0,0,3.53-4.3,32.76,32.76,0,0,0,2.4-4.77,46.66,46.66,0,0,0,2.56-9.51c.63.48,1.28.94,1.94,1.37a34.79,34.79,0,0,0,4.79,2.63,28.29,28.29,0,0,0,5.15,1.79.3.3,0,0,0,.3-.12.28.28,0,0,0-.07-.39c-1.48-1.06-3-2-4.46-3s-3-1.92-4.41-2.9l-4.34-3c-1.45-1-2.89-2-4.42-3a.29.29,0,0,0-.31,0,.29.29,0,0,0-.09.39,21.9,21.9,0,0,0,3.54,4.19c.47.44,1,.86,1.46,1.27a74.88,74.88,0,0,1-4.24,9,24.46,24.46,0,0,1-5.92,7.21,10.29,10.29,0,0,1-3.7,1.79,10,10,0,0,1-1.89.29,8.67,8.67,0,0,1-1.95-.17,7.75,7.75,0,0,1-1.93-.71,10.12,10.12,0,0,1-1.75-1.27,13.78,13.78,0,0,1-2.73-3.53,17.65,17.65,0,0,1-2-8.89,20.25,20.25,0,0,1,2.43-8.88,24.77,24.77,0,0,1,2.63-3.91A31,31,0,0,1-28.79,106a76.23,76.23,0,0,1,7.91-6h0a.37.37,0,0,0,.15-.38A.38.38,0,0,0-21.17,99.38Z"/><path class="cls-2" d="M6.83,136.38a26.22,26.22,0,0,0-4.91,1.71c-.8.36-1.56.78-2.33,1.2s-1.51.92-2.21,1.46a24.44,24.44,0,0,0-4,3.57,24.25,24.25,0,0,0-3.19,4.37,22.13,22.13,0,0,0-2.94,10.46,21.6,21.6,0,0,0,2.47,10.66,16.17,16.17,0,0,0,8.32,7.67,11.15,11.15,0,0,0,3,.66,9.9,9.9,0,0,0,3.12-.32A10.88,10.88,0,0,0,7,176.6l.63-.39.6-.44a14.43,14.43,0,0,0,1.12-.92,19.57,19.57,0,0,0,3.53-4.3,32.76,32.76,0,0,0,2.4-4.77,46.66,46.66,0,0,0,2.56-9.51c.63.48,1.28.94,1.94,1.37a34.79,34.79,0,0,0,4.79,2.63,28.29,28.29,0,0,0,5.15,1.79.3.3,0,0,0,.3-.12.28.28,0,0,0-.07-.39c-1.48-1.06-3-2-4.46-3s-3-1.92-4.41-2.9l-4.34-3c-1.45-1-2.89-2-4.42-3a.29.29,0,0,0-.4.39,21.9,21.9,0,0,0,3.54,4.19c.47.44,1,.86,1.46,1.27a74.88,74.88,0,0,1-4.24,9,24.46,24.46,0,0,1-5.92,7.21,10.29,10.29,0,0,1-3.7,1.79,10,10,0,0,1-1.89.29,8.67,8.67,0,0,1-1.95-.17,7.75,7.75,0,0,1-1.93-.71,10.12,10.12,0,0,1-1.75-1.27,13.78,13.78,0,0,1-2.73-3.53,17.65,17.65,0,0,1-2-8.89,20.25,20.25,0,0,1,2.43-8.88,24.77,24.77,0,0,1,2.63-3.91A31,31,0,0,1-.79,143a76.23,76.23,0,0,1,7.91-6h0a.36.36,0,0,0-.29-.65Z"/><path class="cls-2" d="M67.83,136.38a26.22,26.22,0,0,0-4.91,1.71c-.8.36-1.56.78-2.33,1.2s-1.51.92-2.21,1.46a25.77,25.77,0,0,0-7.17,7.94,22.13,22.13,0,0,0-2.94,10.46,21.6,21.6,0,0,0,2.47,10.66,16.17,16.17,0,0,0,8.32,7.67,11.15,11.15,0,0,0,3,.66,9.9,9.9,0,0,0,3.12-.32A10.88,10.88,0,0,0,68,176.6l.63-.39.6-.44a14.43,14.43,0,0,0,1.12-.92,19.57,19.57,0,0,0,3.53-4.3,32.76,32.76,0,0,0,2.4-4.77,46.66,46.66,0,0,0,2.56-9.51c.63.48,1.28.94,1.94,1.37a34.79,34.79,0,0,0,4.79,2.63,28.29,28.29,0,0,0,5.15,1.79.3.3,0,0,0,.3-.12.28.28,0,0,0-.07-.39c-1.48-1.06-3-2-4.46-3s-3-1.92-4.41-2.9l-4.34-3c-1.45-1-2.89-2-4.42-3a.29.29,0,0,0-.4.39,21.9,21.9,0,0,0,3.54,4.19c.47.44,1,.86,1.46,1.27a74.88,74.88,0,0,1-4.24,9,24.46,24.46,0,0,1-5.92,7.21,10.29,10.29,0,0,1-3.7,1.79,10,10,0,0,1-1.89.29,8.67,8.67,0,0,1-2-.17,7.75,7.75,0,0,1-1.93-.71,10.12,10.12,0,0,1-1.75-1.27,13.78,13.78,0,0,1-2.73-3.53,17.65,17.65,0,0,1-2-8.89,20.25,20.25,0,0,1,2.43-8.88,24.77,24.77,0,0,1,2.63-3.91A31,31,0,0,1,60.21,143a76.23,76.23,0,0,1,7.91-6h0a.36.36,0,0,0-.29-.65Z"/><path class="cls-2" d="M127.83,136.38a26.22,26.22,0,0,0-4.91,1.71c-.8.36-1.56.78-2.33,1.2s-1.51.92-2.21,1.46a25.77,25.77,0,0,0-7.17,7.94,22.13,22.13,0,0,0-2.94,10.46,21.6,21.6,0,0,0,2.47,10.66,16.17,16.17,0,0,0,8.32,7.67,11.15,11.15,0,0,0,3,.66,9.9,9.9,0,0,0,3.12-.32A10.88,10.88,0,0,0,128,176.6l.63-.39.6-.44a14.43,14.43,0,0,0,1.12-.92,19.57,19.57,0,0,0,3.53-4.3,32.76,32.76,0,0,0,2.4-4.77,46.66,46.66,0,0,0,2.56-9.51c.63.48,1.28.94,1.94,1.37a34.79,34.79,0,0,0,4.79,2.63,28.29,28.29,0,0,0,5.15,1.79.3.3,0,0,0,.3-.12.28.28,0,0,0-.07-.39c-1.48-1.06-3-2-4.46-3s-3-1.92-4.41-2.9l-4.34-3c-1.45-1-2.89-2-4.42-3a.29.29,0,0,0-.4.39,21.9,21.9,0,0,0,3.54,4.19c.47.44,1,.86,1.46,1.27a74.88,74.88,0,0,1-4.24,9,24.46,24.46,0,0,1-5.92,7.21,10.29,10.29,0,0,1-3.7,1.79,10,10,0,0,1-1.89.29,8.67,8.67,0,0,1-2-.17,7.75,7.75,0,0,1-1.93-.71,10.12,10.12,0,0,1-1.75-1.27,13.78,13.78,0,0,1-2.73-3.53,17.65,17.65,0,0,1-2-8.89,20.25,20.25,0,0,1,2.43-8.88,24.77,24.77,0,0,1,2.63-3.91,31,31,0,0,1,3.34-3.44,76.23,76.23,0,0,1,7.91-6h0a.36.36,0,0,0-.29-.65Z"/><path class="cls-2" d="M191.83,136.38a26.22,26.22,0,0,0-4.91,1.71c-.8.36-1.56.78-2.33,1.2s-1.51.92-2.21,1.46a25.77,25.77,0,0,0-7.17,7.94,22.13,22.13,0,0,0-2.94,10.46,21.6,21.6,0,0,0,2.47,10.66,16.17,16.17,0,0,0,8.32,7.67,11.15,11.15,0,0,0,3,.66,9.9,9.9,0,0,0,3.12-.32A10.88,10.88,0,0,0,192,176.6l.63-.39.6-.44a14.43,14.43,0,0,0,1.12-.92,19.57,19.57,0,0,0,3.53-4.3,32.76,32.76,0,0,0,2.4-4.77,46.66,46.66,0,0,0,2.56-9.51c.63.48,1.28.94,1.94,1.37a34.79,34.79,0,0,0,4.79,2.63,28.29,28.29,0,0,0,5.15,1.79.3.3,0,0,0,.3-.12.28.28,0,0,0-.07-.39c-1.48-1.06-3-2-4.46-3s-3-1.92-4.41-2.9l-4.34-3c-1.45-1-2.89-2-4.42-3a.29.29,0,0,0-.4.39,21.9,21.9,0,0,0,3.54,4.19c.47.44,1,.86,1.46,1.27a74.88,74.88,0,0,1-4.24,9,24.46,24.46,0,0,1-5.92,7.21,10.29,10.29,0,0,1-3.7,1.79,10,10,0,0,1-1.89.29,8.67,8.67,0,0,1-1.95-.17,7.75,7.75,0,0,1-1.93-.71,10.12,10.12,0,0,1-1.75-1.27,13.78,13.78,0,0,1-2.73-3.53,17.65,17.65,0,0,1-2-8.89,20.25,20.25,0,0,1,2.43-8.88,24.77,24.77,0,0,1,2.63-3.91,31,31,0,0,1,3.34-3.44,76.23,76.23,0,0,1,7.91-6h0a.36.36,0,0,0-.29-.65Z"/><path class="cls-2" d="M252.83,136.38a26.22,26.22,0,0,0-4.91,1.71c-.8.36-1.56.78-2.33,1.2s-1.51.92-2.21,1.46a25.77,25.77,0,0,0-7.17,7.94,22.13,22.13,0,0,0-2.94,10.46,21.6,21.6,0,0,0,2.47,10.66,16.17,16.17,0,0,0,8.32,7.67,11.15,11.15,0,0,0,3,.66,9.9,9.9,0,0,0,3.12-.32A10.88,10.88,0,0,0,253,176.6l.63-.39.6-.44a14.43,14.43,0,0,0,1.12-.92,19.57,19.57,0,0,0,3.53-4.3,32.76,32.76,0,0,0,2.4-4.77,46.66,46.66,0,0,0,2.56-9.51c.63.48,1.28.94,1.94,1.37a34.79,34.79,0,0,0,4.79,2.63,28.29,28.29,0,0,0,5.15,1.79.3.3,0,0,0,.3-.12.28.28,0,0,0-.07-.39c-1.48-1.06-3-2-4.46-3s-3-1.92-4.41-2.9l-4.34-3c-1.45-1-2.89-2-4.42-3a.29.29,0,0,0-.4.39,21.9,21.9,0,0,0,3.54,4.19c.47.44,1,.86,1.46,1.27a74.88,74.88,0,0,1-4.24,9,24.46,24.46,0,0,1-5.92,7.21,10.29,10.29,0,0,1-3.7,1.79,10,10,0,0,1-1.89.29,8.67,8.67,0,0,1-1.95-.17,7.75,7.75,0,0,1-1.93-.71,10.12,10.12,0,0,1-1.75-1.27,13.78,13.78,0,0,1-2.73-3.53,17.65,17.65,0,0,1-2-8.89,20.25,20.25,0,0,1,2.43-8.88,24.77,24.77,0,0,1,2.63-3.91,31,31,0,0,1,3.34-3.44,76.23,76.23,0,0,1,7.91-6h0a.36.36,0,0,0-.29-.65Z"/><path class="cls-2" d="M315.83,136.38a26.22,26.22,0,0,0-4.91,1.71c-.8.36-1.56.78-2.33,1.2s-1.51.92-2.21,1.46a25.77,25.77,0,0,0-7.17,7.94,22.13,22.13,0,0,0-2.94,10.46,21.6,21.6,0,0,0,2.47,10.66,16.17,16.17,0,0,0,8.32,7.67,11.15,11.15,0,0,0,3,.66,9.9,9.9,0,0,0,3.12-.32A10.88,10.88,0,0,0,316,176.6l.63-.39.6-.44a14.43,14.43,0,0,0,1.12-.92,19.57,19.57,0,0,0,3.53-4.3,32.76,32.76,0,0,0,2.4-4.77,46.66,46.66,0,0,0,2.56-9.51c.63.48,1.28.94,1.94,1.37a34.79,34.79,0,0,0,4.79,2.63,28.29,28.29,0,0,0,5.15,1.79.3.3,0,0,0,.3-.12.28.28,0,0,0-.07-.39c-1.48-1.06-3-2-4.46-3s-3-1.92-4.41-2.9l-4.34-3c-1.45-1-2.89-2-4.42-3a.29.29,0,0,0-.4.39,21.9,21.9,0,0,0,3.54,4.19c.47.44,1,.86,1.46,1.27a74.88,74.88,0,0,1-4.24,9,24.46,24.46,0,0,1-5.92,7.21,10.29,10.29,0,0,1-3.7,1.79,10,10,0,0,1-1.89.29,8.67,8.67,0,0,1-1.95-.17,7.75,7.75,0,0,1-1.93-.71,10.12,10.12,0,0,1-1.75-1.27,13.78,13.78,0,0,1-2.73-3.53,17.65,17.65,0,0,1-2-8.89,20.25,20.25,0,0,1,2.43-8.88,24.77,24.77,0,0,1,2.63-3.91,31,31,0,0,1,3.34-3.44,76.23,76.23,0,0,1,7.91-6h0a.36.36,0,0,0-.29-.65Z"/><path class="cls-2" d="M6.83,212.38a26.22,26.22,0,0,0-4.91,1.71c-.8.36-1.56.78-2.33,1.2s-1.51.92-2.21,1.46a24.44,24.44,0,0,0-4,3.57,24.25,24.25,0,0,0-3.19,4.37,22.13,22.13,0,0,0-2.94,10.46,21.6,21.6,0,0,0,2.47,10.66,16.17,16.17,0,0,0,8.32,7.67,11.15,11.15,0,0,0,3,.66,9.9,9.9,0,0,0,3.12-.32A10.88,10.88,0,0,0,7,252.6l.63-.39.6-.44a14.43,14.43,0,0,0,1.12-.92,19.57,19.57,0,0,0,3.53-4.3,32.76,32.76,0,0,0,2.4-4.77,46.66,46.66,0,0,0,2.56-9.51c.63.48,1.28.94,1.94,1.37a34.79,34.79,0,0,0,4.79,2.63,28.29,28.29,0,0,0,5.15,1.79.3.3,0,0,0,.3-.12.28.28,0,0,0-.07-.39c-1.48-1.06-3-2-4.46-3s-3-1.92-4.41-2.9l-4.34-3c-1.45-1-2.89-2-4.42-3a.29.29,0,0,0-.4.39,21.9,21.9,0,0,0,3.54,4.19c.47.44,1,.86,1.46,1.27a74.88,74.88,0,0,1-4.24,9,24.46,24.46,0,0,1-5.92,7.21,10.29,10.29,0,0,1-3.7,1.79,10,10,0,0,1-1.89.29,8.67,8.67,0,0,1-1.95-.17,7.75,7.75,0,0,1-1.93-.71,10.12,10.12,0,0,1-1.75-1.27,13.78,13.78,0,0,1-2.73-3.53,17.65,17.65,0,0,1-2-8.89,20.25,20.25,0,0,1,2.43-8.88,24.77,24.77,0,0,1,2.63-3.91A31,31,0,0,1-.79,219a76.23,76.23,0,0,1,7.91-6h0a.36.36,0,0,0-.29-.65Z"/><path class="cls-2" d="M67.83,212.38a26.22,26.22,0,0,0-4.91,1.71c-.8.36-1.56.78-2.33,1.2s-1.51.92-2.21,1.46a25.77,25.77,0,0,0-7.17,7.94,22.13,22.13,0,0,0-2.94,10.46,21.6,21.6,0,0,0,2.47,10.66,16.17,16.17,0,0,0,8.32,7.67,11.15,11.15,0,0,0,3,.66,9.9,9.9,0,0,0,3.12-.32A10.88,10.88,0,0,0,68,252.6l.63-.39.6-.44a14.43,14.43,0,0,0,1.12-.92,19.57,19.57,0,0,0,3.53-4.3,32.76,32.76,0,0,0,2.4-4.77,46.66,46.66,0,0,0,2.56-9.51c.63.48,1.28.94,1.94,1.37a34.79,34.79,0,0,0,4.79,2.63,28.29,28.29,0,0,0,5.15,1.79.3.3,0,0,0,.3-.12.28.28,0,0,0-.07-.39c-1.48-1.06-3-2-4.46-3s-3-1.92-4.41-2.9l-4.34-3c-1.45-1-2.89-2-4.42-3a.29.29,0,0,0-.4.39,21.9,21.9,0,0,0,3.54,4.19c.47.44,1,.86,1.46,1.27a74.88,74.88,0,0,1-4.24,9,24.46,24.46,0,0,1-5.92,7.21,10.29,10.29,0,0,1-3.7,1.79,10,10,0,0,1-1.89.29,8.67,8.67,0,0,1-2-.17,7.75,7.75,0,0,1-1.93-.71,10.12,10.12,0,0,1-1.75-1.27,13.78,13.78,0,0,1-2.73-3.53,17.65,17.65,0,0,1-2-8.89,20.25,20.25,0,0,1,2.43-8.88,24.77,24.77,0,0,1,2.63-3.91A31,31,0,0,1,60.21,219a76.23,76.23,0,0,1,7.91-6h0a.36.36,0,0,0-.29-.65Z"/><path class="cls-2" d="M127.83,212.38a26.22,26.22,0,0,0-4.91,1.71c-.8.36-1.56.78-2.33,1.2s-1.51.92-2.21,1.46a25.77,25.77,0,0,0-7.17,7.94,22.13,22.13,0,0,0-2.94,10.46,21.6,21.6,0,0,0,2.47,10.66,16.17,16.17,0,0,0,8.32,7.67,11.15,11.15,0,0,0,3,.66,9.9,9.9,0,0,0,3.12-.32A10.88,10.88,0,0,0,128,252.6l.63-.39.6-.44a14.43,14.43,0,0,0,1.12-.92,19.57,19.57,0,0,0,3.53-4.3,32.76,32.76,0,0,0,2.4-4.77,46.66,46.66,0,0,0,2.56-9.51c.63.48,1.28.94,1.94,1.37a34.79,34.79,0,0,0,4.79,2.63,28.29,28.29,0,0,0,5.15,1.79.3.3,0,0,0,.3-.12.28.28,0,0,0-.07-.39c-1.48-1.06-3-2-4.46-3s-3-1.92-4.41-2.9l-4.34-3c-1.45-1-2.89-2-4.42-3a.29.29,0,0,0-.4.39,21.9,21.9,0,0,0,3.54,4.19c.47.44,1,.86,1.46,1.27a74.88,74.88,0,0,1-4.24,9,24.46,24.46,0,0,1-5.92,7.21,10.29,10.29,0,0,1-3.7,1.79,10,10,0,0,1-1.89.29,8.67,8.67,0,0,1-2-.17,7.75,7.75,0,0,1-1.93-.71,10.12,10.12,0,0,1-1.75-1.27,13.78,13.78,0,0,1-2.73-3.53,17.65,17.65,0,0,1-2-8.89,20.25,20.25,0,0,1,2.43-8.88,24.77,24.77,0,0,1,2.63-3.91,31,31,0,0,1,3.34-3.44,76.23,76.23,0,0,1,7.91-6h0a.36.36,0,0,0-.29-.65Z"/><path class="cls-2" d="M191.83,212.38a26.22,26.22,0,0,0-4.91,1.71c-.8.36-1.56.78-2.33,1.2s-1.51.92-2.21,1.46a25.77,25.77,0,0,0-7.17,7.94,22.13,22.13,0,0,0-2.94,10.46,21.6,21.6,0,0,0,2.47,10.66,16.17,16.17,0,0,0,8.32,7.67,11.15,11.15,0,0,0,3,.66,9.9,9.9,0,0,0,3.12-.32A10.88,10.88,0,0,0,192,252.6l.63-.39.6-.44a14.43,14.43,0,0,0,1.12-.92,19.57,19.57,0,0,0,3.53-4.3,32.76,32.76,0,0,0,2.4-4.77,46.66,46.66,0,0,0,2.56-9.51c.63.48,1.28.94,1.94,1.37a34.79,34.79,0,0,0,4.79,2.63,28.29,28.29,0,0,0,5.15,1.79.3.3,0,0,0,.3-.12.28.28,0,0,0-.07-.39c-1.48-1.06-3-2-4.46-3s-3-1.92-4.41-2.9l-4.34-3c-1.45-1-2.89-2-4.42-3a.29.29,0,0,0-.4.39,21.9,21.9,0,0,0,3.54,4.19c.47.44,1,.86,1.46,1.27a74.88,74.88,0,0,1-4.24,9,24.46,24.46,0,0,1-5.92,7.21,10.29,10.29,0,0,1-3.7,1.79,10,10,0,0,1-1.89.29,8.67,8.67,0,0,1-1.95-.17,7.75,7.75,0,0,1-1.93-.71,10.12,10.12,0,0,1-1.75-1.27,13.78,13.78,0,0,1-2.73-3.53,17.65,17.65,0,0,1-2-8.89,20.25,20.25,0,0,1,2.43-8.88,24.77,24.77,0,0,1,2.63-3.91,31,31,0,0,1,3.34-3.44,76.23,76.23,0,0,1,7.91-6h0a.36.36,0,0,0-.29-.65Z"/><path class="cls-2" d="M252.83,212.38a26.22,26.22,0,0,0-4.91,1.71c-.8.36-1.56.78-2.33,1.2s-1.51.92-2.21,1.46a25.77,25.77,0,0,0-7.17,7.94,22.13,22.13,0,0,0-2.94,10.46,21.6,21.6,0,0,0,2.47,10.66,16.17,16.17,0,0,0,8.32,7.67,11.15,11.15,0,0,0,3,.66,9.9,9.9,0,0,0,3.12-.32A10.88,10.88,0,0,0,253,252.6l.63-.39.6-.44a14.43,14.43,0,0,0,1.12-.92,19.57,19.57,0,0,0,3.53-4.3,32.76,32.76,0,0,0,2.4-4.77,46.66,46.66,0,0,0,2.56-9.51c.63.48,1.28.94,1.94,1.37a34.79,34.79,0,0,0,4.79,2.63,28.29,28.29,0,0,0,5.15,1.79.3.3,0,0,0,.3-.12.28.28,0,0,0-.07-.39c-1.48-1.06-3-2-4.46-3s-3-1.92-4.41-2.9l-4.34-3c-1.45-1-2.89-2-4.42-3a.29.29,0,0,0-.4.39,21.9,21.9,0,0,0,3.54,4.19c.47.44,1,.86,1.46,1.27a74.88,74.88,0,0,1-4.24,9,24.46,24.46,0,0,1-5.92,7.21,10.29,10.29,0,0,1-3.7,1.79,10,10,0,0,1-1.89.29,8.67,8.67,0,0,1-1.95-.17,7.75,7.75,0,0,1-1.93-.71,10.12,10.12,0,0,1-1.75-1.27,13.78,13.78,0,0,1-2.73-3.53,17.65,17.65,0,0,1-2-8.89,20.25,20.25,0,0,1,2.43-8.88,24.77,24.77,0,0,1,2.63-3.91,31,31,0,0,1,3.34-3.44,76.23,76.23,0,0,1,7.91-6h0a.36.36,0,0,0-.29-.65Z"/><path class="cls-2" d="M315.83,212.38a26.22,26.22,0,0,0-4.91,1.71c-.8.36-1.56.78-2.33,1.2s-1.51.92-2.21,1.46a25.77,25.77,0,0,0-7.17,7.94,22.13,22.13,0,0,0-2.94,10.46,21.6,21.6,0,0,0,2.47,10.66,16.17,16.17,0,0,0,8.32,7.67,11.15,11.15,0,0,0,3,.66,9.9,9.9,0,0,0,3.12-.32A10.88,10.88,0,0,0,316,252.6l.63-.39.6-.44a14.43,14.43,0,0,0,1.12-.92,19.57,19.57,0,0,0,3.53-4.3,32.76,32.76,0,0,0,2.4-4.77,46.66,46.66,0,0,0,2.56-9.51c.63.48,1.28.94,1.94,1.37a34.79,34.79,0,0,0,4.79,2.63,28.29,28.29,0,0,0,5.15,1.79.3.3,0,0,0,.3-.12.28.28,0,0,0-.07-.39c-1.48-1.06-3-2-4.46-3s-3-1.92-4.41-2.9l-4.34-3c-1.45-1-2.89-2-4.42-3a.29.29,0,0,0-.4.39,21.9,21.9,0,0,0,3.54,4.19c.47.44,1,.86,1.46,1.27a74.88,74.88,0,0,1-4.24,9,24.46,24.46,0,0,1-5.92,7.21,10.29,10.29,0,0,1-3.7,1.79,10,10,0,0,1-1.89.29,8.67,8.67,0,0,1-1.95-.17,7.75,7.75,0,0,1-1.93-.71,10.12,10.12,0,0,1-1.75-1.27,13.78,13.78,0,0,1-2.73-3.53,17.65,17.65,0,0,1-2-8.89,20.25,20.25,0,0,1,2.43-8.88,24.77,24.77,0,0,1,2.63-3.91,31,31,0,0,1,3.34-3.44,76.23,76.23,0,0,1,7.91-6h0a.36.36,0,0,0-.29-.65Z"/><path class="cls-2" d="M37.83,173.38a26.22,26.22,0,0,0-4.91,1.71c-.8.36-1.56.78-2.33,1.2s-1.51.92-2.21,1.46a25.77,25.77,0,0,0-7.17,7.94,22.13,22.13,0,0,0-2.94,10.46,21.6,21.6,0,0,0,2.47,10.66,16.17,16.17,0,0,0,8.32,7.67,11.15,11.15,0,0,0,3,.66,9.9,9.9,0,0,0,3.12-.32A10.88,10.88,0,0,0,38,213.6l.63-.39.6-.44a14.43,14.43,0,0,0,1.12-.92,19.57,19.57,0,0,0,3.53-4.3,32.76,32.76,0,0,0,2.4-4.77,46.66,46.66,0,0,0,2.56-9.51c.63.48,1.28.94,1.94,1.37a34.79,34.79,0,0,0,4.79,2.63,28.29,28.29,0,0,0,5.15,1.79.3.3,0,0,0,.3-.12.28.28,0,0,0-.07-.39c-1.48-1.06-3-2-4.46-3s-3-1.92-4.41-2.9l-4.34-3c-1.45-1-2.89-2-4.42-3a.29.29,0,0,0-.4.39,21.9,21.9,0,0,0,3.54,4.19c.47.44,1,.86,1.46,1.27a74.88,74.88,0,0,1-4.24,9,24.46,24.46,0,0,1-5.92,7.21,10.29,10.29,0,0,1-3.7,1.79,10,10,0,0,1-1.89.29,8.67,8.67,0,0,1-2-.17,7.75,7.75,0,0,1-1.93-.71,10.12,10.12,0,0,1-1.75-1.27,13.78,13.78,0,0,1-2.73-3.53,17.65,17.65,0,0,1-2-8.89,20.25,20.25,0,0,1,2.43-8.88,24.77,24.77,0,0,1,2.63-3.91A31,31,0,0,1,30.21,180a76.23,76.23,0,0,1,7.91-6h0a.36.36,0,0,0-.29-.65Z"/><path class="cls-2" d="M98.83,173.38a26.22,26.22,0,0,0-4.91,1.71c-.8.36-1.56.78-2.33,1.2s-1.51.92-2.21,1.46a25.77,25.77,0,0,0-7.17,7.94,22.13,22.13,0,0,0-2.94,10.46,21.6,21.6,0,0,0,2.47,10.66,16.17,16.17,0,0,0,8.32,7.67,11.15,11.15,0,0,0,3,.66,9.9,9.9,0,0,0,3.12-.32A10.88,10.88,0,0,0,99,213.6l.63-.39.6-.44a14.43,14.43,0,0,0,1.12-.92,19.57,19.57,0,0,0,3.53-4.3,32.76,32.76,0,0,0,2.4-4.77,46.66,46.66,0,0,0,2.56-9.51c.63.48,1.28.94,1.94,1.37a34.79,34.79,0,0,0,4.79,2.63,28.29,28.29,0,0,0,5.15,1.79.3.3,0,0,0,.3-.12.28.28,0,0,0-.07-.39c-1.48-1.06-3-2-4.46-3s-3-1.92-4.41-2.9l-4.34-3c-1.45-1-2.89-2-4.42-3a.29.29,0,0,0-.4.39,21.9,21.9,0,0,0,3.54,4.19c.47.44,1,.86,1.46,1.27a74.88,74.88,0,0,1-4.24,9,24.46,24.46,0,0,1-5.92,7.21,10.29,10.29,0,0,1-3.7,1.79,10,10,0,0,1-1.89.29,8.67,8.67,0,0,1-2-.17,7.75,7.75,0,0,1-1.93-.71,10.12,10.12,0,0,1-1.75-1.27,13.78,13.78,0,0,1-2.73-3.53,17.65,17.65,0,0,1-2-8.89,20.25,20.25,0,0,1,2.43-8.88,24.77,24.77,0,0,1,2.63-3.91A31,31,0,0,1,91.21,180a76.23,76.23,0,0,1,7.91-6h0a.36.36,0,0,0-.29-.65Z"/><path class="cls-2" d="M158.83,173.38a26.22,26.22,0,0,0-4.91,1.71c-.8.36-1.56.78-2.33,1.2s-1.51.92-2.21,1.46a25.77,25.77,0,0,0-7.17,7.94,22.13,22.13,0,0,0-2.94,10.46,21.6,21.6,0,0,0,2.47,10.66,16.17,16.17,0,0,0,8.32,7.67,11.15,11.15,0,0,0,3,.66,9.9,9.9,0,0,0,3.12-.32A10.88,10.88,0,0,0,159,213.6l.63-.39.6-.44a14.43,14.43,0,0,0,1.12-.92,19.57,19.57,0,0,0,3.53-4.3,32.76,32.76,0,0,0,2.4-4.77,46.66,46.66,0,0,0,2.56-9.51c.63.48,1.28.94,1.94,1.37a34.79,34.79,0,0,0,4.79,2.63,28.29,28.29,0,0,0,5.15,1.79.3.3,0,0,0,.3-.12.28.28,0,0,0-.07-.39c-1.48-1.06-3-2-4.46-3s-3-1.92-4.41-2.9l-4.34-3c-1.45-1-2.89-2-4.42-3a.29.29,0,0,0-.4.39,21.9,21.9,0,0,0,3.54,4.19c.47.44,1,.86,1.46,1.27a74.88,74.88,0,0,1-4.24,9,24.46,24.46,0,0,1-5.92,7.21,10.29,10.29,0,0,1-3.7,1.79,10,10,0,0,1-1.89.29,8.67,8.67,0,0,1-1.95-.17,7.75,7.75,0,0,1-1.93-.71,10.12,10.12,0,0,1-1.75-1.27,13.78,13.78,0,0,1-2.73-3.53,17.65,17.65,0,0,1-2-8.89,20.25,20.25,0,0,1,2.43-8.88,24.77,24.77,0,0,1,2.63-3.91,31,31,0,0,1,3.34-3.44,76.23,76.23,0,0,1,7.91-6h0a.36.36,0,0,0-.29-.65Z"/><path class="cls-2" d="M222.83,173.38a26.22,26.22,0,0,0-4.91,1.71c-.8.36-1.56.78-2.33,1.2s-1.51.92-2.21,1.46a25.77,25.77,0,0,0-7.17,7.94,22.13,22.13,0,0,0-2.94,10.46,21.6,21.6,0,0,0,2.47,10.66,16.17,16.17,0,0,0,8.32,7.67,11.15,11.15,0,0,0,3,.66,9.9,9.9,0,0,0,3.12-.32A10.88,10.88,0,0,0,223,213.6l.63-.39.6-.44a14.43,14.43,0,0,0,1.12-.92,19.57,19.57,0,0,0,3.53-4.3,32.76,32.76,0,0,0,2.4-4.77,46.66,46.66,0,0,0,2.56-9.51c.63.48,1.28.94,1.94,1.37a34.79,34.79,0,0,0,4.79,2.63,28.29,28.29,0,0,0,5.15,1.79.3.3,0,0,0,.3-.12.28.28,0,0,0-.07-.39c-1.48-1.06-3-2-4.46-3s-3-1.92-4.41-2.9l-4.34-3c-1.45-1-2.89-2-4.42-3a.29.29,0,0,0-.4.39,21.9,21.9,0,0,0,3.54,4.19c.47.44,1,.86,1.46,1.27a74.88,74.88,0,0,1-4.24,9,24.46,24.46,0,0,1-5.92,7.21,10.29,10.29,0,0,1-3.7,1.79,10,10,0,0,1-1.89.29,8.67,8.67,0,0,1-1.95-.17,7.75,7.75,0,0,1-1.93-.71,10.12,10.12,0,0,1-1.75-1.27,13.78,13.78,0,0,1-2.73-3.53,17.65,17.65,0,0,1-2-8.89,20.25,20.25,0,0,1,2.43-8.88,24.77,24.77,0,0,1,2.63-3.91,31,31,0,0,1,3.34-3.44,76.23,76.23,0,0,1,7.91-6h0a.36.36,0,0,0-.29-.65Z"/><path class="cls-2" d="M283.83,173.38a26.22,26.22,0,0,0-4.91,1.71c-.8.36-1.56.78-2.33,1.2s-1.51.92-2.21,1.46a25.77,25.77,0,0,0-7.17,7.94,22.13,22.13,0,0,0-2.94,10.46,21.6,21.6,0,0,0,2.47,10.66,16.17,16.17,0,0,0,8.32,7.67,11.15,11.15,0,0,0,3,.66,9.9,9.9,0,0,0,3.12-.32A10.88,10.88,0,0,0,284,213.6l.63-.39.6-.44a14.43,14.43,0,0,0,1.12-.92,19.57,19.57,0,0,0,3.53-4.3,32.76,32.76,0,0,0,2.4-4.77,46.66,46.66,0,0,0,2.56-9.51c.63.48,1.28.94,1.94,1.37a34.79,34.79,0,0,0,4.79,2.63,28.29,28.29,0,0,0,5.15,1.79.3.3,0,0,0,.3-.12.28.28,0,0,0-.07-.39c-1.48-1.06-3-2-4.46-3s-3-1.92-4.41-2.9l-4.34-3c-1.45-1-2.89-2-4.42-3a.29.29,0,0,0-.4.39,21.9,21.9,0,0,0,3.54,4.19c.47.44,1,.86,1.46,1.27a74.88,74.88,0,0,1-4.24,9,24.46,24.46,0,0,1-5.92,7.21,10.29,10.29,0,0,1-3.7,1.79,10,10,0,0,1-1.89.29,8.67,8.67,0,0,1-1.95-.17,7.75,7.75,0,0,1-1.93-.71,10.12,10.12,0,0,1-1.75-1.27,13.78,13.78,0,0,1-2.73-3.53,17.65,17.65,0,0,1-2-8.89,20.25,20.25,0,0,1,2.43-8.88,24.77,24.77,0,0,1,2.63-3.91,31,31,0,0,1,3.34-3.44,76.23,76.23,0,0,1,7.91-6h0a.36.36,0,0,0-.29-.65Z"/><path class="cls-2" d="M346.83,173.38a26.22,26.22,0,0,0-4.91,1.71c-.8.36-1.56.78-2.33,1.2s-1.51.92-2.21,1.46a25.77,25.77,0,0,0-7.17,7.94,22.13,22.13,0,0,0-2.94,10.46,21.6,21.6,0,0,0,2.47,10.66,16.17,16.17,0,0,0,8.32,7.67,11.15,11.15,0,0,0,3,.66,9.9,9.9,0,0,0,3.12-.32A10.88,10.88,0,0,0,347,213.6l.63-.39.6-.44a14.43,14.43,0,0,0,1.12-.92,19.57,19.57,0,0,0,3.53-4.3,32.76,32.76,0,0,0,2.4-4.77,46.66,46.66,0,0,0,2.56-9.51c.63.48,1.28.94,1.94,1.37a34.79,34.79,0,0,0,4.79,2.63,28.29,28.29,0,0,0,5.15,1.79.3.3,0,0,0,.3-.12.28.28,0,0,0-.07-.39c-1.48-1.06-3-2-4.46-3s-3-1.92-4.41-2.9l-4.34-3c-1.45-1-2.89-2-4.42-3a.29.29,0,0,0-.4.39,21.9,21.9,0,0,0,3.54,4.19c.47.44,1,.86,1.46,1.27a74.88,74.88,0,0,1-4.24,9,24.46,24.46,0,0,1-5.92,7.21,10.29,10.29,0,0,1-3.7,1.79,10,10,0,0,1-1.89.29,8.67,8.67,0,0,1-1.95-.17,7.75,7.75,0,0,1-1.93-.71,10.12,10.12,0,0,1-1.75-1.27,13.78,13.78,0,0,1-2.73-3.53,17.65,17.65,0,0,1-2-8.89,20.25,20.25,0,0,1,2.43-8.88,24.77,24.77,0,0,1,2.63-3.91,31,31,0,0,1,3.34-3.44,76.23,76.23,0,0,1,7.91-6h0a.36.36,0,0,0-.29-.65Z"/><path class="cls-2" d="M-21.17,173.38a26.22,26.22,0,0,0-4.91,1.71c-.8.36-1.56.78-2.33,1.2s-1.51.92-2.21,1.46a24.44,24.44,0,0,0-4,3.57,24.25,24.25,0,0,0-3.19,4.37,22.13,22.13,0,0,0-2.94,10.46,21.6,21.6,0,0,0,2.47,10.66,16.17,16.17,0,0,0,8.32,7.67,11.15,11.15,0,0,0,3,.66,9.9,9.9,0,0,0,3.12-.32A10.88,10.88,0,0,0-21,213.6l.63-.39.6-.44a14.43,14.43,0,0,0,1.12-.92,19.57,19.57,0,0,0,3.53-4.3,32.76,32.76,0,0,0,2.4-4.77,46.66,46.66,0,0,0,2.56-9.51c.63.48,1.28.94,1.94,1.37a34.79,34.79,0,0,0,4.79,2.63,28.29,28.29,0,0,0,5.15,1.79.3.3,0,0,0,.3-.12.28.28,0,0,0-.07-.39c-1.48-1.06-3-2-4.46-3s-3-1.92-4.41-2.9l-4.34-3c-1.45-1-2.89-2-4.42-3a.29.29,0,0,0-.31,0,.29.29,0,0,0-.09.39,21.9,21.9,0,0,0,3.54,4.19c.47.44,1,.86,1.46,1.27a74.88,74.88,0,0,1-4.24,9,24.46,24.46,0,0,1-5.92,7.21,10.29,10.29,0,0,1-3.7,1.79,10,10,0,0,1-1.89.29,8.67,8.67,0,0,1-1.95-.17,7.75,7.75,0,0,1-1.93-.71,10.12,10.12,0,0,1-1.75-1.27,13.78,13.78,0,0,1-2.73-3.53,17.65,17.65,0,0,1-2-8.89,20.25,20.25,0,0,1,2.43-8.88,24.77,24.77,0,0,1,2.63-3.91A31,31,0,0,1-28.79,180a76.23,76.23,0,0,1,7.91-6h0a.37.37,0,0,0,.15-.38A.38.38,0,0,0-21.17,173.38Z"/><path class="cls-2" d="M6.83,293.38a26.22,26.22,0,0,0-4.91,1.71c-.8.36-1.56.78-2.33,1.2s-1.51.92-2.21,1.46a24.44,24.44,0,0,0-4,3.57,24.25,24.25,0,0,0-3.19,4.37,22.13,22.13,0,0,0-2.94,10.46,21.6,21.6,0,0,0,2.47,10.66,16.17,16.17,0,0,0,8.32,7.67,11.15,11.15,0,0,0,3,.66,9.9,9.9,0,0,0,3.12-.32A10.88,10.88,0,0,0,7,333.6l.63-.39.6-.44a14.43,14.43,0,0,0,1.12-.92,19.57,19.57,0,0,0,3.53-4.3,32.76,32.76,0,0,0,2.4-4.77,46.66,46.66,0,0,0,2.56-9.51c.63.48,1.28.94,1.94,1.37a34.79,34.79,0,0,0,4.79,2.63,28.29,28.29,0,0,0,5.15,1.79.3.3,0,0,0,.3-.12.28.28,0,0,0-.07-.39c-1.48-1.06-3-2-4.46-3s-3-1.92-4.41-2.9l-4.34-3c-1.45-1-2.89-2-4.42-3a.29.29,0,0,0-.4.39,21.9,21.9,0,0,0,3.54,4.19c.47.44,1,.86,1.46,1.27a74.88,74.88,0,0,1-4.24,9,24.46,24.46,0,0,1-5.92,7.21,10.29,10.29,0,0,1-3.7,1.79,10,10,0,0,1-1.89.29,8.67,8.67,0,0,1-1.95-.17,7.75,7.75,0,0,1-1.93-.71,10.12,10.12,0,0,1-1.75-1.27,13.78,13.78,0,0,1-2.73-3.53,17.65,17.65,0,0,1-2-8.89,20.25,20.25,0,0,1,2.43-8.88,24.77,24.77,0,0,1,2.63-3.91A31,31,0,0,1-.79,300a76.23,76.23,0,0,1,7.91-6h0a.36.36,0,0,0-.29-.65Z"/><path class="cls-2" d="M67.83,293.38a26.22,26.22,0,0,0-4.91,1.71c-.8.36-1.56.78-2.33,1.2s-1.51.92-2.21,1.46a25.77,25.77,0,0,0-7.17,7.94,22.13,22.13,0,0,0-2.94,10.46,21.6,21.6,0,0,0,2.47,10.66,16.17,16.17,0,0,0,8.32,7.67,11.15,11.15,0,0,0,3,.66,9.9,9.9,0,0,0,3.12-.32A10.88,10.88,0,0,0,68,333.6l.63-.39.6-.44a14.43,14.43,0,0,0,1.12-.92,19.57,19.57,0,0,0,3.53-4.3,32.76,32.76,0,0,0,2.4-4.77,46.66,46.66,0,0,0,2.56-9.51c.63.48,1.28.94,1.94,1.37a34.79,34.79,0,0,0,4.79,2.63,28.29,28.29,0,0,0,5.15,1.79.3.3,0,0,0,.3-.12.28.28,0,0,0-.07-.39c-1.48-1.06-3-2-4.46-3s-3-1.92-4.41-2.9l-4.34-3c-1.45-1-2.89-2-4.42-3a.29.29,0,0,0-.4.39,21.9,21.9,0,0,0,3.54,4.19c.47.44,1,.86,1.46,1.27a74.88,74.88,0,0,1-4.24,9,24.46,24.46,0,0,1-5.92,7.21,10.29,10.29,0,0,1-3.7,1.79,10,10,0,0,1-1.89.29,8.67,8.67,0,0,1-2-.17,7.75,7.75,0,0,1-1.93-.71,10.12,10.12,0,0,1-1.75-1.27,13.78,13.78,0,0,1-2.73-3.53,17.65,17.65,0,0,1-2-8.89,20.25,20.25,0,0,1,2.43-8.88,24.77,24.77,0,0,1,2.63-3.91A31,31,0,0,1,60.21,300a76.23,76.23,0,0,1,7.91-6h0a.36.36,0,0,0-.29-.65Z"/><path class="cls-2" d="M127.83,293.38a26.22,26.22,0,0,0-4.91,1.71c-.8.36-1.56.78-2.33,1.2s-1.51.92-2.21,1.46a25.77,25.77,0,0,0-7.17,7.94,22.13,22.13,0,0,0-2.94,10.46,21.6,21.6,0,0,0,2.47,10.66,16.17,16.17,0,0,0,8.32,7.67,11.15,11.15,0,0,0,3,.66,9.9,9.9,0,0,0,3.12-.32A10.88,10.88,0,0,0,128,333.6l.63-.39.6-.44a14.43,14.43,0,0,0,1.12-.92,19.57,19.57,0,0,0,3.53-4.3,32.76,32.76,0,0,0,2.4-4.77,46.66,46.66,0,0,0,2.56-9.51c.63.48,1.28.94,1.94,1.37a34.79,34.79,0,0,0,4.79,2.63,28.29,28.29,0,0,0,5.15,1.79.3.3,0,0,0,.3-.12.28.28,0,0,0-.07-.39c-1.48-1.06-3-2-4.46-3s-3-1.92-4.41-2.9l-4.34-3c-1.45-1-2.89-2-4.42-3a.29.29,0,0,0-.4.39,21.9,21.9,0,0,0,3.54,4.19c.47.44,1,.86,1.46,1.27a74.88,74.88,0,0,1-4.24,9,24.46,24.46,0,0,1-5.92,7.21,10.29,10.29,0,0,1-3.7,1.79,10,10,0,0,1-1.89.29,8.67,8.67,0,0,1-2-.17,7.75,7.75,0,0,1-1.93-.71,10.12,10.12,0,0,1-1.75-1.27,13.78,13.78,0,0,1-2.73-3.53,17.65,17.65,0,0,1-2-8.89,20.25,20.25,0,0,1,2.43-8.88,24.77,24.77,0,0,1,2.63-3.91,31,31,0,0,1,3.34-3.44,76.23,76.23,0,0,1,7.91-6h0a.36.36,0,0,0-.29-.65Z"/><path class="cls-2" d="M191.83,293.38a26.22,26.22,0,0,0-4.91,1.71c-.8.36-1.56.78-2.33,1.2s-1.51.92-2.21,1.46a25.77,25.77,0,0,0-7.17,7.94,22.13,22.13,0,0,0-2.94,10.46,21.6,21.6,0,0,0,2.47,10.66,16.17,16.17,0,0,0,8.32,7.67,11.15,11.15,0,0,0,3,.66,9.9,9.9,0,0,0,3.12-.32A10.88,10.88,0,0,0,192,333.6l.63-.39.6-.44a14.43,14.43,0,0,0,1.12-.92,19.57,19.57,0,0,0,3.53-4.3,32.76,32.76,0,0,0,2.4-4.77,46.66,46.66,0,0,0,2.56-9.51c.63.48,1.28.94,1.94,1.37a34.79,34.79,0,0,0,4.79,2.63,28.29,28.29,0,0,0,5.15,1.79.3.3,0,0,0,.3-.12.28.28,0,0,0-.07-.39c-1.48-1.06-3-2-4.46-3s-3-1.92-4.41-2.9l-4.34-3c-1.45-1-2.89-2-4.42-3a.29.29,0,0,0-.4.39,21.9,21.9,0,0,0,3.54,4.19c.47.44,1,.86,1.46,1.27a74.88,74.88,0,0,1-4.24,9,24.46,24.46,0,0,1-5.92,7.21,10.29,10.29,0,0,1-3.7,1.79,10,10,0,0,1-1.89.29,8.67,8.67,0,0,1-1.95-.17,7.75,7.75,0,0,1-1.93-.71,10.12,10.12,0,0,1-1.75-1.27,13.78,13.78,0,0,1-2.73-3.53,17.65,17.65,0,0,1-2-8.89,20.25,20.25,0,0,1,2.43-8.88,24.77,24.77,0,0,1,2.63-3.91,31,31,0,0,1,3.34-3.44,76.23,76.23,0,0,1,7.91-6h0a.36.36,0,0,0-.29-.65Z"/><path class="cls-2" d="M252.83,293.38a26.22,26.22,0,0,0-4.91,1.71c-.8.36-1.56.78-2.33,1.2s-1.51.92-2.21,1.46a25.77,25.77,0,0,0-7.17,7.94,22.13,22.13,0,0,0-2.94,10.46,21.6,21.6,0,0,0,2.47,10.66,16.17,16.17,0,0,0,8.32,7.67,11.15,11.15,0,0,0,3,.66,9.9,9.9,0,0,0,3.12-.32A10.88,10.88,0,0,0,253,333.6l.63-.39.6-.44a14.43,14.43,0,0,0,1.12-.92,19.57,19.57,0,0,0,3.53-4.3,32.76,32.76,0,0,0,2.4-4.77,46.66,46.66,0,0,0,2.56-9.51c.63.48,1.28.94,1.94,1.37a34.79,34.79,0,0,0,4.79,2.63,28.29,28.29,0,0,0,5.15,1.79.3.3,0,0,0,.3-.12.28.28,0,0,0-.07-.39c-1.48-1.06-3-2-4.46-3s-3-1.92-4.41-2.9l-4.34-3c-1.45-1-2.89-2-4.42-3a.29.29,0,0,0-.4.39,21.9,21.9,0,0,0,3.54,4.19c.47.44,1,.86,1.46,1.27a74.88,74.88,0,0,1-4.24,9,24.46,24.46,0,0,1-5.92,7.21,10.29,10.29,0,0,1-3.7,1.79,10,10,0,0,1-1.89.29,8.67,8.67,0,0,1-1.95-.17,7.75,7.75,0,0,1-1.93-.71,10.12,10.12,0,0,1-1.75-1.27,13.78,13.78,0,0,1-2.73-3.53,17.65,17.65,0,0,1-2-8.89,20.25,20.25,0,0,1,2.43-8.88,24.77,24.77,0,0,1,2.63-3.91,31,31,0,0,1,3.34-3.44,76.23,76.23,0,0,1,7.91-6h0a.36.36,0,0,0-.29-.65Z"/><path class="cls-2" d="M315.83,293.38a26.22,26.22,0,0,0-4.91,1.71c-.8.36-1.56.78-2.33,1.2s-1.51.92-2.21,1.46a25.77,25.77,0,0,0-7.17,7.94,22.13,22.13,0,0,0-2.94,10.46,21.6,21.6,0,0,0,2.47,10.66,16.17,16.17,0,0,0,8.32,7.67,11.15,11.15,0,0,0,3,.66,9.9,9.9,0,0,0,3.12-.32A10.88,10.88,0,0,0,316,333.6l.63-.39.6-.44a14.43,14.43,0,0,0,1.12-.92,19.57,19.57,0,0,0,3.53-4.3,32.76,32.76,0,0,0,2.4-4.77,46.66,46.66,0,0,0,2.56-9.51c.63.48,1.28.94,1.94,1.37a34.79,34.79,0,0,0,4.79,2.63,28.29,28.29,0,0,0,5.15,1.79.3.3,0,0,0,.3-.12.28.28,0,0,0-.07-.39c-1.48-1.06-3-2-4.46-3s-3-1.92-4.41-2.9l-4.34-3c-1.45-1-2.89-2-4.42-3a.29.29,0,0,0-.4.39,21.9,21.9,0,0,0,3.54,4.19c.47.44,1,.86,1.46,1.27a74.88,74.88,0,0,1-4.24,9,24.46,24.46,0,0,1-5.92,7.21,10.29,10.29,0,0,1-3.7,1.79,10,10,0,0,1-1.89.29,8.67,8.67,0,0,1-1.95-.17,7.75,7.75,0,0,1-1.93-.71,10.12,10.12,0,0,1-1.75-1.27,13.78,13.78,0,0,1-2.73-3.53,17.65,17.65,0,0,1-2-8.89,20.25,20.25,0,0,1,2.43-8.88,24.77,24.77,0,0,1,2.63-3.91,31,31,0,0,1,3.34-3.44,76.23,76.23,0,0,1,7.91-6h0a.36.36,0,0,0-.29-.65Z"/><path class="cls-2" d="M37.83,254.38a26.22,26.22,0,0,0-4.91,1.71c-.8.36-1.56.78-2.33,1.2s-1.51.92-2.21,1.46a25.77,25.77,0,0,0-7.17,7.94,22.13,22.13,0,0,0-2.94,10.46,21.6,21.6,0,0,0,2.47,10.66,16.17,16.17,0,0,0,8.32,7.67,11.15,11.15,0,0,0,3,.66,9.9,9.9,0,0,0,3.12-.32A10.88,10.88,0,0,0,38,294.6l.63-.39.6-.44a14.43,14.43,0,0,0,1.12-.92,19.57,19.57,0,0,0,3.53-4.3,32.76,32.76,0,0,0,2.4-4.77,46.66,46.66,0,0,0,2.56-9.51c.63.48,1.28.94,1.94,1.37a34.79,34.79,0,0,0,4.79,2.63,28.29,28.29,0,0,0,5.15,1.79.3.3,0,0,0,.3-.12.28.28,0,0,0-.07-.39c-1.48-1.06-3-2-4.46-3s-3-1.92-4.41-2.9l-4.34-3c-1.45-1-2.89-2-4.42-3a.29.29,0,0,0-.4.39,21.9,21.9,0,0,0,3.54,4.19c.47.44,1,.86,1.46,1.27a74.88,74.88,0,0,1-4.24,9,24.46,24.46,0,0,1-5.92,7.21,10.29,10.29,0,0,1-3.7,1.79,10,10,0,0,1-1.89.29,8.67,8.67,0,0,1-2-.17,7.75,7.75,0,0,1-1.93-.71,10.12,10.12,0,0,1-1.75-1.27,13.78,13.78,0,0,1-2.73-3.53,17.65,17.65,0,0,1-2-8.89,20.25,20.25,0,0,1,2.43-8.88,24.77,24.77,0,0,1,2.63-3.91A31,31,0,0,1,30.21,261a76.23,76.23,0,0,1,7.91-6h0a.36.36,0,0,0-.29-.65Z"/><path class="cls-2" d="M98.83,254.38a26.22,26.22,0,0,0-4.91,1.71c-.8.36-1.56.78-2.33,1.2s-1.51.92-2.21,1.46a25.77,25.77,0,0,0-7.17,7.94,22.13,22.13,0,0,0-2.94,10.46,21.6,21.6,0,0,0,2.47,10.66,16.17,16.17,0,0,0,8.32,7.67,11.15,11.15,0,0,0,3,.66,9.9,9.9,0,0,0,3.12-.32A10.88,10.88,0,0,0,99,294.6l.63-.39.6-.44a14.43,14.43,0,0,0,1.12-.92,19.57,19.57,0,0,0,3.53-4.3,32.76,32.76,0,0,0,2.4-4.77,46.66,46.66,0,0,0,2.56-9.51c.63.48,1.28.94,1.94,1.37a34.79,34.79,0,0,0,4.79,2.63,28.29,28.29,0,0,0,5.15,1.79.3.3,0,0,0,.3-.12.28.28,0,0,0-.07-.39c-1.48-1.06-3-2-4.46-3s-3-1.92-4.41-2.9l-4.34-3c-1.45-1-2.89-2-4.42-3a.29.29,0,0,0-.4.39,21.9,21.9,0,0,0,3.54,4.19c.47.44,1,.86,1.46,1.27a74.88,74.88,0,0,1-4.24,9,24.46,24.46,0,0,1-5.92,7.21,10.29,10.29,0,0,1-3.7,1.79,10,10,0,0,1-1.89.29,8.67,8.67,0,0,1-2-.17,7.75,7.75,0,0,1-1.93-.71,10.12,10.12,0,0,1-1.75-1.27,13.78,13.78,0,0,1-2.73-3.53,17.65,17.65,0,0,1-2-8.89,20.25,20.25,0,0,1,2.43-8.88,24.77,24.77,0,0,1,2.63-3.91A31,31,0,0,1,91.21,261a76.23,76.23,0,0,1,7.91-6h0a.36.36,0,0,0-.29-.65Z"/><path class="cls-2" d="M158.83,254.38a26.22,26.22,0,0,0-4.91,1.71c-.8.36-1.56.78-2.33,1.2s-1.51.92-2.21,1.46a25.77,25.77,0,0,0-7.17,7.94,22.13,22.13,0,0,0-2.94,10.46,21.6,21.6,0,0,0,2.47,10.66,16.17,16.17,0,0,0,8.32,7.67,11.15,11.15,0,0,0,3,.66,9.9,9.9,0,0,0,3.12-.32A10.88,10.88,0,0,0,159,294.6l.63-.39.6-.44a14.43,14.43,0,0,0,1.12-.92,19.57,19.57,0,0,0,3.53-4.3,32.76,32.76,0,0,0,2.4-4.77,46.66,46.66,0,0,0,2.56-9.51c.63.48,1.28.94,1.94,1.37a34.79,34.79,0,0,0,4.79,2.63,28.29,28.29,0,0,0,5.15,1.79.3.3,0,0,0,.3-.12.28.28,0,0,0-.07-.39c-1.48-1.06-3-2-4.46-3s-3-1.92-4.41-2.9l-4.34-3c-1.45-1-2.89-2-4.42-3a.29.29,0,0,0-.4.39,21.9,21.9,0,0,0,3.54,4.19c.47.44,1,.86,1.46,1.27a74.88,74.88,0,0,1-4.24,9,24.46,24.46,0,0,1-5.92,7.21,10.29,10.29,0,0,1-3.7,1.79,10,10,0,0,1-1.89.29,8.67,8.67,0,0,1-1.95-.17,7.75,7.75,0,0,1-1.93-.71,10.12,10.12,0,0,1-1.75-1.27,13.78,13.78,0,0,1-2.73-3.53,17.65,17.65,0,0,1-2-8.89,20.25,20.25,0,0,1,2.43-8.88,24.77,24.77,0,0,1,2.63-3.91,31,31,0,0,1,3.34-3.44,76.23,76.23,0,0,1,7.91-6h0a.36.36,0,0,0-.29-.65Z"/><path class="cls-2" d="M222.83,254.38a26.22,26.22,0,0,0-4.91,1.71c-.8.36-1.56.78-2.33,1.2s-1.51.92-2.21,1.46a25.77,25.77,0,0,0-7.17,7.94,22.13,22.13,0,0,0-2.94,10.46,21.6,21.6,0,0,0,2.47,10.66,16.17,16.17,0,0,0,8.32,7.67,11.15,11.15,0,0,0,3,.66,9.9,9.9,0,0,0,3.12-.32A10.88,10.88,0,0,0,223,294.6l.63-.39.6-.44a14.43,14.43,0,0,0,1.12-.92,19.57,19.57,0,0,0,3.53-4.3,32.76,32.76,0,0,0,2.4-4.77,46.66,46.66,0,0,0,2.56-9.51c.63.48,1.28.94,1.94,1.37a34.79,34.79,0,0,0,4.79,2.63,28.29,28.29,0,0,0,5.15,1.79.3.3,0,0,0,.3-.12.28.28,0,0,0-.07-.39c-1.48-1.06-3-2-4.46-3s-3-1.92-4.41-2.9l-4.34-3c-1.45-1-2.89-2-4.42-3a.29.29,0,0,0-.4.39,21.9,21.9,0,0,0,3.54,4.19c.47.44,1,.86,1.46,1.27a74.88,74.88,0,0,1-4.24,9,24.46,24.46,0,0,1-5.92,7.21,10.29,10.29,0,0,1-3.7,1.79,10,10,0,0,1-1.89.29,8.67,8.67,0,0,1-1.95-.17,7.75,7.75,0,0,1-1.93-.71,10.12,10.12,0,0,1-1.75-1.27,13.78,13.78,0,0,1-2.73-3.53,17.65,17.65,0,0,1-2-8.89,20.25,20.25,0,0,1,2.43-8.88,24.77,24.77,0,0,1,2.63-3.91,31,31,0,0,1,3.34-3.44,76.23,76.23,0,0,1,7.91-6h0a.36.36,0,0,0-.29-.65Z"/><path class="cls-2" d="M283.83,254.38a26.22,26.22,0,0,0-4.91,1.71c-.8.36-1.56.78-2.33,1.2s-1.51.92-2.21,1.46a25.77,25.77,0,0,0-7.17,7.94,22.13,22.13,0,0,0-2.94,10.46,21.6,21.6,0,0,0,2.47,10.66,16.17,16.17,0,0,0,8.32,7.67,11.15,11.15,0,0,0,3,.66,9.9,9.9,0,0,0,3.12-.32A10.88,10.88,0,0,0,284,294.6l.63-.39.6-.44a14.43,14.43,0,0,0,1.12-.92,19.57,19.57,0,0,0,3.53-4.3,32.76,32.76,0,0,0,2.4-4.77,46.66,46.66,0,0,0,2.56-9.51c.63.48,1.28.94,1.94,1.37a34.79,34.79,0,0,0,4.79,2.63,28.29,28.29,0,0,0,5.15,1.79.3.3,0,0,0,.3-.12.28.28,0,0,0-.07-.39c-1.48-1.06-3-2-4.46-3s-3-1.92-4.41-2.9l-4.34-3c-1.45-1-2.89-2-4.42-3a.29.29,0,0,0-.4.39,21.9,21.9,0,0,0,3.54,4.19c.47.44,1,.86,1.46,1.27a74.88,74.88,0,0,1-4.24,9,24.46,24.46,0,0,1-5.92,7.21,10.29,10.29,0,0,1-3.7,1.79,10,10,0,0,1-1.89.29,8.67,8.67,0,0,1-1.95-.17,7.75,7.75,0,0,1-1.93-.71,10.12,10.12,0,0,1-1.75-1.27,13.78,13.78,0,0,1-2.73-3.53,17.65,17.65,0,0,1-2-8.89,20.25,20.25,0,0,1,2.43-8.88,24.77,24.77,0,0,1,2.63-3.91,31,31,0,0,1,3.34-3.44,76.23,76.23,0,0,1,7.91-6h0a.36.36,0,0,0-.29-.65Z"/><path class="cls-2" d="M346.83,254.38a26.22,26.22,0,0,0-4.91,1.71c-.8.36-1.56.78-2.33,1.2s-1.51.92-2.21,1.46a25.77,25.77,0,0,0-7.17,7.94,22.13,22.13,0,0,0-2.94,10.46,21.6,21.6,0,0,0,2.47,10.66,16.17,16.17,0,0,0,8.32,7.67,11.15,11.15,0,0,0,3,.66,9.9,9.9,0,0,0,3.12-.32A10.88,10.88,0,0,0,347,294.6l.63-.39.6-.44a14.43,14.43,0,0,0,1.12-.92,19.57,19.57,0,0,0,3.53-4.3,32.76,32.76,0,0,0,2.4-4.77,46.66,46.66,0,0,0,2.56-9.51c.63.48,1.28.94,1.94,1.37a34.79,34.79,0,0,0,4.79,2.63,28.29,28.29,0,0,0,5.15,1.79.3.3,0,0,0,.3-.12.28.28,0,0,0-.07-.39c-1.48-1.06-3-2-4.46-3s-3-1.92-4.41-2.9l-4.34-3c-1.45-1-2.89-2-4.42-3a.29.29,0,0,0-.4.39,21.9,21.9,0,0,0,3.54,4.19c.47.44,1,.86,1.46,1.27a74.88,74.88,0,0,1-4.24,9,24.46,24.46,0,0,1-5.92,7.21,10.29,10.29,0,0,1-3.7,1.79,10,10,0,0,1-1.89.29,8.67,8.67,0,0,1-1.95-.17,7.75,7.75,0,0,1-1.93-.71,10.12,10.12,0,0,1-1.75-1.27,13.78,13.78,0,0,1-2.73-3.53,17.65,17.65,0,0,1-2-8.89,20.25,20.25,0,0,1,2.43-8.88,24.77,24.77,0,0,1,2.63-3.91,31,31,0,0,1,3.34-3.44,76.23,76.23,0,0,1,7.91-6h0a.36.36,0,0,0-.29-.65Z"/><path class="cls-2" d="M-21.17,254.38a26.22,26.22,0,0,0-4.91,1.71c-.8.36-1.56.78-2.33,1.2s-1.51.92-2.21,1.46a24.44,24.44,0,0,0-4,3.57,24.25,24.25,0,0,0-3.19,4.37,22.13,22.13,0,0,0-2.94,10.46,21.6,21.6,0,0,0,2.47,10.66,16.17,16.17,0,0,0,8.32,7.67,11.15,11.15,0,0,0,3,.66,9.9,9.9,0,0,0,3.12-.32A10.88,10.88,0,0,0-21,294.6l.63-.39.6-.44a14.43,14.43,0,0,0,1.12-.92,19.57,19.57,0,0,0,3.53-4.3,32.76,32.76,0,0,0,2.4-4.77,46.66,46.66,0,0,0,2.56-9.51c.63.48,1.28.94,1.94,1.37a34.79,34.79,0,0,0,4.79,2.63,28.29,28.29,0,0,0,5.15,1.79.3.3,0,0,0,.3-.12.28.28,0,0,0-.07-.39c-1.48-1.06-3-2-4.46-3s-3-1.92-4.41-2.9l-4.34-3c-1.45-1-2.89-2-4.42-3a.29.29,0,0,0-.31,0,.29.29,0,0,0-.09.39,21.9,21.9,0,0,0,3.54,4.19c.47.44,1,.86,1.46,1.27a74.88,74.88,0,0,1-4.24,9,24.46,24.46,0,0,1-5.92,7.21,10.29,10.29,0,0,1-3.7,1.79,10,10,0,0,1-1.89.29,8.67,8.67,0,0,1-1.95-.17,7.75,7.75,0,0,1-1.93-.71,10.12,10.12,0,0,1-1.75-1.27,13.78,13.78,0,0,1-2.73-3.53,17.65,17.65,0,0,1-2-8.89,20.25,20.25,0,0,1,2.43-8.88,24.77,24.77,0,0,1,2.63-3.91A31,31,0,0,1-28.79,261a76.23,76.23,0,0,1,7.91-6h0a.37.37,0,0,0,.15-.38A.38.38,0,0,0-21.17,254.38Z"/></svg>