<svg id="Layer_1" data-name="Layer 1" xmlns="http://www.w3.org/2000/svg" viewBox="0 0 155 92"><defs><style>.cls-1{fill:#ededed;}.cls-2{font-size:20px;font-family:Raleway-SemiBold, Raleway;font-weight:700;}.cls-2,.cls-4{fill:#fff;}.cls-3{letter-spacing:-0.01em;}</style></defs><title>Tekengebied 2 kopie</title><polygon class="cls-1" points="17.52 87.3 88.04 80.8 80.77 9.29 11.02 15.29 17.52 87.3"/><text class="cls-2" transform="translate(100.35 78.64)"><tspan class="cls-3">r</tspan><tspan x="7.34" y="0">am</tspan></text><path class="cls-4" d="M101.53,27.25a46.62,46.62,0,0,0-8.35-4c-1.45-.56-3-1-4.46-1.43s-3.06-.74-4.62-1a45.09,45.09,0,0,0-9.52-.51A43.75,43.75,0,0,0,65,21.8a39.68,39.68,0,0,0-16.91,9.49A38.56,38.56,0,0,0,37.8,47.84,29,29,0,0,0,38.62,68a20.28,20.28,0,0,0,3,4.66A17.78,17.78,0,0,0,46,76.23a19.19,19.19,0,0,0,5.07,2c.44.1.87.22,1.3.3l1.3.21a25.48,25.48,0,0,0,2.59.25,34.58,34.58,0,0,0,9.87-1,56.19,56.19,0,0,0,9-3,82.19,82.19,0,0,0,15.24-8.78c.19,1.41.42,2.8.72,4.18a60.8,60.8,0,0,0,2.73,9.36,48.45,48.45,0,0,0,4.24,8.76.49.49,0,0,0,.51.23.51.51,0,0,0,.42-.59c-.54-3.19-1.23-6.28-1.89-9.37s-1.3-6.15-1.9-9.22l-1.72-9.23c-.57-3.09-1.09-6.19-1.77-9.37a.51.51,0,0,0-1,0,38.54,38.54,0,0,0-.82,9.75c0,1.15.12,2.29.23,3.43a131.28,131.28,0,0,1-16.68,6c-5.6,1.45-11.36,2.36-16.56,1.62A18.22,18.22,0,0,1,50,69.39a16.77,16.77,0,0,1-2.76-2A14.93,14.93,0,0,1,45,64.7a14.53,14.53,0,0,1-1.54-3.34,17.72,17.72,0,0,1-.6-3.8,24.69,24.69,0,0,1,1-7.91,31.35,31.35,0,0,1,8.66-13.76,36,36,0,0,1,14.27-8.14A44,44,0,0,1,75,26.13,55.24,55.24,0,0,1,83.54,26a134,134,0,0,1,17.54,2.42h0a.66.66,0,0,0,.66-.3A.65.65,0,0,0,101.53,27.25Z"/></svg>